<svg xmlns="http://www.w3.org/2000/svg" version="1.0" width="500" height="500" viewBox="0 0 2694 2694"><path d="M892 534.5c-4.7.6-10.1 1.7-12 2.3-6.3 1.9-19.9 5.5-27 7.1-1.9.4-8.2 2.5-14 4.5-25.4 9.1-33.9 13-41.3 18.9-2.3 1.8-5.3 4.1-6.7 5-7.7 5-12.4 8.9-24.8 20-14.6 13.1-18.2 16.5-18.2 17.3 0 .2-2.5 4.4-5.5 9.2-5.9 9.3-8.8 17-10 26.7-.6 5.7-1 6.3-7.4 12.6-7.6 7.6-14 16.8-17.1 24.9-1.1 3-2.7 6.8-3.5 8.5-9.3 20.3-12.1 47.7-7 67.5l2 8c.8 4 4.9 13.2 8.8 20 6.9 12.1 7.1 12.4 8.6 14.2 1.2 1.5 1.2 1.8 0 2.2-.8.2-3 .9-4.9 1.5-1.9.6-8.4.3-14.5 8.1-6.1 3.9-11.5 7-11.9 7-1.4 0-14.1 11-18.4 16-2.3 2.7-6.7 6.5-9.7 8.5-3.3 2.2-8.4 7.4-13.2 13.3-4.3 5.3-11.9 14.3-17 20-5.1 5.6-9.3 10.8-9.3 11.5 0 .7-3.4 5.1-7.5 9.7-4.2 4.7-8.4 10.1-9.5 12-1 1.9-3.3 4.9-4.9 6.7-1.7 1.8-3.1 3.7-3.1 4.2 0 .6-.4 1.1-.9 1.1s-2 1.8-3.3 4c-3.5 5.9-12.6 18.9-16.9 24.2-2.2 2.6-3.9 5-3.9 5.4 0 .4-2.1 3.3-4.8 6.3-2.6 3.1-6.3 7.8-8.2 10.4-1.9 2.7-5.5 7.4-8.1 10.5-5.6 7-9.9 13.3-13.1 19.2-1.3 2.5-4 7-6 10-4.5 7-9.4 16.8-12.5 24.9-1.3 3.5-3.6 8.2-5.2 10.5-6 8.8-28.5 57-32.5 69.6-1.5 4.7-4.9 15.2-7.6 23.5-2.7 8.2-5.6 17.7-6.4 21-1.4 5.8-2.7 10.3-8.6 30.5-1.6 5.2-3.1 12.5-3.4 16.2-.3 3.7-1.2 9.5-2.1 12.8-.9 3.4-2 9.9-2.5 14.4-.5 4.4-1.3 10.6-1.9 13.6-1.2 6.7-4.7 36.3-6.2 52-.5 6.3-.9 17.8-.8 25.5.1 7.7-.4 21.6-1.1 31-2.8 36.2-1.2 82.8 3.3 97.5.8 2.5 2 8.5 2.6 13.5.7 4.9 2.1 12.1 3.2 16 1.1 3.8 2.7 9.2 3.5 12 .8 2.7 2.1 8.1 2.9 12 3 13.9 3.7 16.1 6.6 21.8 1.6 3.2 2.9 6.8 2.9 8 .1 1.2.9 4 2 6.2s1.9 4.5 2 5.2c0 .6.8 2.7 1.9 4.5 1 1.8 3.5 8 5.6 13.8 3.6 10.2 4.9 13 9.5 21.5 3.9 7.3 8.6 9.9 11.3 6.1 1.3-1.9 4.7 5.8 4.7 10.7 0 2.6 3 13 4.1 14.1.5.6.9 2 .9 3.2 0 1.2 1.3 4.6 2.8 7.5 4.8 9.1 4.8 8.6-1.6 11.6-3.1 1.4-6.4 3-7.2 3.5-.8.4-3.1 1.6-5 2.4-1.9.9-5.4 2.9-7.8 4.5-2.4 1.6-5.7 3.6-7.5 4.5-8.2 4.1-52.1 32.9-56.5 37.2-.7.6-1.7 1.2-2.1 1.2-.4 0-1.9.9-3.2 2.1-1.3 1.2-4.8 3.7-7.6 5.6-9.2 6.1-26.2 25.8-37.1 43.1-8.7 13.6-12.4 20.8-15.5 30.1-1.3 3.9-2.9 7.6-3.4 8.3-1.1 1.4-5.7 15-9.4 27.8-1.1 4.1-2.5 8.4-3 9.5-.6 1.1-1.6 4.7-2.4 8-.7 3.3-2.2 9.4-3.3 13.5-1.1 4.1-2.3 10.4-2.7 14-.4 3.6-1.3 7.6-2 9-.8 1.4-1.7 5.9-2.1 9.9-.4 4.1-1 6.7-1.5 6-.4-.7-.6.2-.5 2.2.2 1.9-.3 10.4-1.1 18.9-3.4 39.9-4.7 61.4-4.8 85 0 20.8 2.4 47.4 4.6 49 .3.3.9 2.3 1.2 4.5.8 6 1.7 9.6 3.3 13.2.8 1.7 1.4 3.5 1.4 4 0 1.7 6.1 12.3 7.1 12.3.6 0 .7.5.4 1-.3.6.7 3 2.3 5.4 1.7 2.4 3.3 5.2 3.6 6.3.3 1 2.2 3.5 4.1 5.6 1.9 2.1 3.5 4.5 3.5 5.2 0 .8.9 2 2 2.7 1.1.7 2 1.7 2 2.1 0 .5 2.5 3.7 5.5 7.2 3 3.4 5.5 6.9 5.5 7.8 0 .9.8 2.2 1.8 2.9 1.1.7 3.7 3.5 6 6.3 6.3 7.7 9.3 11.1 14.7 16.7 2.8 2.9 4.9 5.6 4.8 6-.2.4 1.5 1.9 3.7 3.3s3.9 3.1 3.7 3.8c-.1.6.5 1.1 1.3 1 .8-.2 2.5 1.3 3.8 3.3 1.7 2.5 2.8 3.4 4 2.9.9-.3 1.4-.4 1.1-.1-.5.6 8.6 10.6 9.6 10.6.5 0 20.1 18.7 23.3 22.2.9 1 2.2 1.8 3 1.8.7 0 2.4 1.1 3.8 2.5s2.9 2.5 3.4 2.5 2.4 1.2 4.2 2.7c3.1 2.6 5.3 4.1 9.6 6.2 8.1 4 10.5 5 11.2 4.6.4-.3 1 .2 1.4 1 .3.8 1.1 1.5 1.9 1.5.7 0 3.2.9 5.5 2 2.2 1.1 4.6 2 5.1 2 .6 0 2.5.6 4.3 1.4 1.8.8 6.7 2.6 10.8 4.1 4.1 1.5 8.4 3 9.5 3.5 1.1.5 3.4 1.1 5 1.4 1.7.2 4.8.9 7 1.4 2.2.6 9.2 2 15.5 3.2 6.3 1.2 13.5 2.8 16 3.5 2.5.8 9 1.9 14.5 2.5 5.5.7 10.5 1.5 11.2 1.8.6.4 5.8.5 11.5.2s11.5-.3 13 .1 2.8.3 3-.1c.2-.5 5.5-1.2 11.8-1.4 16.9-.8 37.1-3.1 40.5-4.6 1.1-.5 5.3-1.7 9.3-2.6 4-.9 7.5-2.1 7.8-2.5.3-.5 1.6-.9 2.9-.9 3.2 0 16.3-4.4 24.5-8.2 10.8-5.1 15.1-6.8 16.9-6.8 1 0 2.5-.8 3.4-1.8 1-1 4-2.9 6.7-4.2 2.8-1.3 5-2.7 5-3.2s.4-.7.9-.4c.5.3 1.1 0 1.4-.8.3-.8 1.9-1.7 3.6-2.1 1.7-.4 3.1-1 3.1-1.5s2.8-2.6 6.3-4.6c3.4-2.1 8.1-5.3 10.5-7.1 2.4-1.8 5-3.3 5.7-3.3.8 0 2.8-1.3 4.6-2.9 1.8-1.7 4.5-3.5 6-4.2 1.6-.6 4.3-2.4 6.1-3.9 1.8-1.6 6.9-5.9 11.3-9.7 4.4-3.8 10.9-8.9 14.5-11.5 6-4.3 17.3-14.7 21.1-19.3.9-1.1 3.8-4 6.5-6.5 7.1-6.6 20.2-21 25.4-28 2.5-3.3 7.4-8.3 10.9-11.1 10.1-8.1 11.2-9.2 13.6-13.4 3.5-6 4-9.9 1.8-13.6-1.8-3.1-1.8-3.1.5-4.7 1.3-1 4.4-3.3 7-5.2 2.6-1.9 6.3-4.4 8.2-5.4 1.9-1.1 6.1-3.9 9.2-6.2 3.1-2.4 7.4-5.3 9.5-6.4 6.5-3.6 11.1-6.5 13-8.2 1-.9 2.9-2.1 4.3-2.7 1.4-.6 4.5-2.3 7-3.7 3.8-2.1 7.5-4 22-11.3 21-10.6 34.6-17.1 35.5-17.1.6 0 13.7-6 17.7-8.1 1-.5 2.3-.9 3-.9.7 0 4.4-1.5 8.3-3.4 3.8-1.9 9.9-4.4 13.5-5.6 3.6-1.2 7.5-2.8 8.8-3.6 1.3-.9 6.1-3.5 10.7-5.9 4.6-2.4 9.4-5.1 10.7-6 2.1-1.4 12.9-8.6 16.7-11 .9-.6 1.8-1.2 2.1-1.5.3-.3 2.7-2.1 5.4-4s7-5.4 9.6-7.7c2.6-2.4 5-4.3 5.4-4.3.4 0 3.3-1.9 6.4-4.3 6.1-4.5 6.2-4.6 13.7-9.2 2.6-1.7 6.3-4.2 8-5.7 1.8-1.6 3.6-2.8 4-2.8.9 0 17.6-11.3 22.5-15.1 1.9-1.6 7.3-5.7 12-9.1 4.7-3.4 13.3-10.9 19.2-16.6 12.4-12.1 18-20.1 27.6-39.7 4.7-9.6 10.5-23.9 13.6-33.5 2.8-8.6 6.3-35.5 8.7-67.3 1-12.4 1.4-14.7 2.8-14.7 1.6 0 14.2-6 19.1-9.2 1.4-.8 5.7-3.6 9.5-6 14.1-9.1 40.3-24.7 50-29.8 20-10.5 36-19.4 36.3-20.2.2-.4 1-.8 1.8-.8 1.3 0 13.4-5.6 17.4-8.1 6.1-3.7 58-29.7 58-29 0 .3.4.1.8-.4.4-.6 3.8-2.6 7.5-4.5 7-3.6 10.8-5.7 27.1-14.8 5.2-2.8 9.9-5.2 10.5-5.2.5 0 1.6-.6 2.3-1.3.7-.7 13.8-7.5 29.1-15.1 31.4-15.7 29.6-15.4 32.3-5.1 3.6 14.1 4.5 21.5 6.5 55 1.6 26.5 1.6 25.4 2.3 61.5.4 17.9.9 42.8 1.2 55.5.3 12.6.5 23.9.5 25-.3 13.6-.1 21.7.9 50 1.1 31.3 1.6 41.4 2 42.5.1.3.3 3.6.4 7.5.3 9.3 4.2 47.7 6 59 .8 4.9 2 14.2 2.6 20.5.6 6.3 1.6 14.1 2.1 17.4.6 3.2 1.5 9.5 2 14 .5 4.4 1.1 9.3 1.3 10.8.2 1.5 1.4 9.8 2.6 18.5 5.9 43.8 7.6 55 13 89.3 4 25 3.8 52.1-.6 70.5-4 16.9-5.8 21.9-15.4 43.5-2.8 6.3-6.1 14.4-7.3 18-1.3 3.6-3 7.6-3.8 9-.9 1.4-3.5 5.6-5.9 9.5-2.3 3.8-5.5 8.3-7 10-1.5 1.6-5.2 5.6-8.1 8.8-6.3 6.9-13.8 11.4-19.9 12-2.5.3-5.2.7-6 1-.8.3-2.6.8-4 1.1-1.4.3-5 1.2-8 2-3 .9-7.2 1.6-9.3 1.6-2.1 0-4.5.7-5.3 1.5-.8.8-3.4 1.9-5.7 2.6-2.3.6-5.5 1.7-7.2 2.4-4.3 1.9-15 5.3-19.3 6.1-2 .4-5 1.3-6.6 2.1-1.8 1-4.4 1.3-6.9 1-2.2-.3-5-.2-6.2.3-1.3.5-8.7 1.4-16.6 2-7.9.7-17.3 1.8-20.9 2.6-11.7 2.4-19.5 4.5-21.5 5.8-1.1.7-3.3 1.5-5 1.8-1.6.3-7.6 2-13.3 3.7-5.6 1.7-13.1 3.7-16.5 4.4-6 1.2-6.2 1.3-7 5-.6 2.6-.6 4.2.1 4.9 2 2 10.5 2.1 15.7.3 7.1-2.4 22.4-6.5 26.5-7.1 1.9-.3 4.2-.8 5-1.1.8-.4 1.9-.5 2.4-.4.4.1 1.3-.2 2-.8.6-.5 3.1-1.2 5.6-1.6 2.5-.4 6.5-1.4 9-2.2 5.6-1.9 31-3.5 32.7-2.1.8.6 2.3.6 4.5-.1 5.4-1.7 18-4.1 18.9-3.5 1.2.7 17.8-5 25.1-8.7 1-.5 2.5-.9 3.3-.9.8 0 2.3-.4 3.3-.9 4.2-2.2 24-7 31.5-7.6 2.6-.2 5.7-1.1 6.9-1.9 1.2-.9 3.4-1.6 4.9-1.6 1.4 0 3.8-.9 5.2-2 1.5-1.2 2.9-2.1 3.2-2 2 .1 2.5-.1 1.9-1.2-.5-.8-.2-.9 1-.5.9.4 1.5.3 1.3-.1-.2-.4 2-2.7 4.9-5.2 2.9-2.5 5.3-4.9 5.3-5.4.1-1.1 9.8-13.4 12.7-16.2 1.2-1.2 3.4-4.4 4.8-7 1.5-2.7 3-5.6 3.5-6.4.4-.8 1.8-4.7 3.1-8.5 1.2-3.9 3.1-8.6 4.1-10.5 1.6-3.2 2.9-6.3 9-21.3 5.2-12.8 6.2-15.5 6.9-18.7.4-1.9 1.5-6 2.3-9 .9-3 2.4-12.5 3.3-21.1 2.4-21.3 1.2-39.4-5.6-80.4-.7-3.9-1.6-9.3-2-12-.4-2.8-1.3-7.9-1.9-11.5-3.1-18.8-6.4-42-7.6-53.9-.8-7.4-2.1-17.1-2.9-21.5-.8-4.5-2-13.1-2.7-19.1-.7-6.1-1.4-12.1-1.6-13.5-2.8-19.6-6.2-49.4-7.3-64.4-.5-7.7-1.6-22.9-2.4-33.6-2.2-28.6-2.6-40.8-3.1-89.5-.2-24.2-.7-50.3-1-58-.2-7.7-.7-23.2-1-34.5-.9-36.3-3.5-69.6-6.6-86.5-.5-2.8-2.7-8-4.8-11.5-2.8-4.6-3.6-6.9-2.9-7.7.9-1.2 34.6-18.1 61.3-30.8 19.5-9.3 35.7-17.4 41-20.6 2.8-1.6 5.7-3.2 6.5-3.5 4.9-2.1 13-6.1 16-7.9 1.9-1.2 8.9-5 15.5-8.5 6.6-3.4 12.4-6.7 13-7.1.5-.5 1.8-.9 2.9-.9 1 0 1.7-.3 1.3-.6-.9-1 5.7-4.1 11.6-5.4 2.9-.7 7.8-2.5 11-4.1l5.8-3 5.9 6c3.9 4 7.2 6.4 9.9 7.2 3.7 1.1 4 1.4 3.3 3.8-1.6 5.9.4 29.7 3.2 36.2 2.1 5.1 5.5 7.1 10.3 6.1 2.8-.6 4.2-1.6 5.2-3.7 1.2-2.5 1.1-3.3-.9-7.9-2.8-6.5-3.9-11.6-4-18.9 0-3.2-.7-7.4-1.5-9.4-.8-1.9-1.5-3.6-1.5-3.7 0 0 3.5 0 7.9.2 4.3.2 10.2-.1 13-.6 5-.9 5.3-.9 6.2 1.5.5 1.3.9 3.8.9 5.5 0 3.8 4 10.9 7.4 13.1 1.9 1.3 3 1.4 5.4.5 4.6-1.8 5.5-4 3.8-9.6-.9-2.6-2.2-6.7-2.9-9.2-.8-2.5-1.7-5.2-2.1-6.1-.8-1.8 6.3-7.3 10.8-8.5 1.6-.4 3.1-1.7 3.7-3.1 1.4-3.8 4.1-2.5 6.2 3.2 3.5 9.6 8.8 14.1 13.6 11.6 4.8-2.6 3.6-9-4.9-25.3-2.6-4.9-2.8-5.9-1.6-7.1 2.2-2.1 9.5-14.4 11.3-18.8.8-2.1 1.9-3.9 2.4-3.9s.9-.6.9-1.3c0-.6 1.4-4.1 3-7.6 1.7-3.5 3.4-9 3.9-12.2 1.3-9.8-.4-26.3-4.3-42.5-5.5-22.4-8.2-35.9-11.6-58.4-1.1-7.2-2.9-16.4-4.1-20.3-1.1-4-2.7-9.7-3.6-12.7-3.2-11.5-9-23.6-13.2-27.4-2.2-2-6.9-1.9-13.1.4-9.6 3.5-12 4.5-18.5 7.3-19.1 8.3-32.8 14.9-41 19.9-7.7 4.7-11.5 6.8-12.4 6.8-.4 0-.7-2.1-.7-4.8 0-3.1-1.3-8.2-3.8-15-3.3-8.7-3.7-10.7-2.7-12.8 1.4-3.2 1.5-6.7 0-5.8-.6.3-2.9-1.4-5.2-4-7.4-8.2-14.7-7.9-14.7.7 0 3.1 1 6 3.8 10.7 5.2 9 11.2 21.6 12.8 27.1.9 3 2.2 5 3.9 5.9 3.2 1.7 3.2 2.5-.6 5.2-4.8 3.5-7.7 10.5-9.6 22.4l-1.6 10.6-9.3 4.3c-5.1 2.4-10.3 4.7-11.6 5.1-1.3.4-4.5 2.1-7.3 3.8-2.7 1.8-19.4 10.3-37 19s-33.1 16.6-34.5 17.6c-1.4.9-4.1 2.2-6.1 2.9-2 .6-6.2 2.7-9.4 4.7-3.2 1.9-7.5 3.8-9.6 4.3-2.1.5-5.1 1.8-6.8 3-1.7 1.2-7.4 4.2-12.8 6.7-29.2 13.6-37 17.2-60.8 28.9-11.5 5.6-23.9 11.5-27.5 13.1-3.6 1.5-8.1 3.7-10 4.8-7.9 4.4-157.4 78.6-158.3 78.6-.4 0-9 4-19.1 8.9-10.2 5-20.9 10-23.8 11.2-2.9 1.3-6.3 3.1-7.6 4-1.3 1-5.5 3-9.5 4.4-4 1.5-10.4 4-14.4 5.6-3.9 1.6-7.7 2.9-8.3 2.9-.6 0-4.4 1.6-8.3 3.4-4 1.9-10.3 4.6-14.2 6-3.8 1.3-10.6 3.8-15 5.4-4.4 1.6-10.2 3.2-12.8 3.6-3.8.6-5 1.2-5.7 3.1-1.2 3.1.5 8.3 3.3 10.8 2.6 2.3 9 1.6 15-1.5 2.1-1 4.6-1.8 5.5-1.6 1.5.3-4.9 3.9-10.3 5.9-1.1.4-3.5 1.2-5.2 1.9l-3.3 1.2-9.2-9.8c-21.1-22.8-37.8-37.7-47.7-42.8-1.8-1-5.5-3.3-8.2-5.3-7.1-5.1-29.2-14.4-45.4-19.1-17-5-54.5-7.6-83.5-5.8-10 .7-14.5 1.2-29.7 3.7-17.9 2.9-47.9 11-64.8 17.4-3.8 1.5-9.5 3.6-12.5 4.7s-7.7 3-10.5 4.3c-2.7 1.2-7 2.9-9.5 3.6-2.5.7-4.9 1.6-5.5 2.1-.5.4-1.6.8-2.5.8-1.7 0-11 3.5-18.7 7.1-2.4 1-4.8 1.9-5.4 1.9-.5 0-2.5 1.1-4.3 2.5-1.8 1.4-3.7 2.5-4.3 2.5-.5 0-1.8.8-2.9 1.9-1.1 1-3.1 2.4-4.5 3.1-6 3.2-22.3 14.5-27.1 18.6-8.4 7.5-24.3 14-44.8 18.3-3 .6-12.2 1.3-20.5 1.5-14 .4-37 2.5-51 4.6-3.3.5-11.4 1.4-18 2-11 1-31.5 3.5-37.5 4.5-1.4.3-10.1 1.8-19.5 3.4-33.2 5.7-52.5 11.2-80.8 23.2-3.7 1.6-7.1 2.9-7.5 2.9-1.5 0-6.2-8.2-7.2-12.4-.5-2.2-1-7.1-1-10.7 0-4.7-.4-7-1.5-7.9-.8-.7-2-3-2.5-5.1-.6-2.2-1.5-3.9-2-3.9-1.1 0-5-7-7.9-14.5-3.3-8.2-9.7-19.1-12.3-21-1.3-.8-3.5-1.5-5-1.5-3.2 0-3.7-.8-7.2-11-1.4-4.1-4.8-14-7.6-22-4.7-13.4-9.9-33.7-12.1-47-.5-3-1.8-10.5-2.9-16.5-3.2-17.4-3.8-21.4-4.9-31-1.6-13.7-2-33.8-1-56.5.9-22 1.5-38.4 2.4-63 .8-23 5.4-60.7 10.6-87.5 3.1-15.8 3.8-19.3 6.9-31.5 1.1-4.1 2.9-11.3 4-16 5-20.4 20-65.1 27.2-81 4.1-9.2 28.9-58.6 31.3-62.5 1.4-2.2 2.8-4.7 3.2-5.5 1.5-3 11.5-19.6 14.6-24.2 1.8-2.6 4.3-6.6 5.7-8.9 1.4-2.3 3-4.7 3.5-5.3.6-.6 3.2-4 5.8-7.6 8.1-11 12-16 17.7-22.9 5.1-6.1 10.1-12.8 12.5-16.9.6-.9 6.3-8.5 12.7-16.8 6.4-8.4 12.2-16.2 12.8-17.4.6-1.2 3.2-4.6 5.8-7.5 2.6-3 7.9-9.3 11.7-14.1 9.5-11.8 16.9-19.6 30.2-31.7 15.9-14.6 17.5-15.8 30.1-24.1 13.3-8.7 18.1-10.6 27.1-10.6 6.4 0 6.8.2 11.1 4.3 14.5 13.6 33.9 21.8 85.7 36.2 2.8.8 9.8 2.1 15.5 3 5.7.9 12.6 2.2 15.3 3 2.8.8 5.9 1.4 7 1.4 1.1 0 7.8.4 14.8.8 7.1.4 13.1.4 13.4 0 .3-.4 1.2-.7 2.1-.6 1.6.2 14-.7 22.2-1.7 7.5-.8 33.3-6.6 46-10.3 4.1-1.2 9.3-2.7 11.5-3.3 2.2-.5 4.9-1.4 6-1.9 1.1-.4 4.9-1.8 8.5-3 31.7-10.7 67.6-33.7 89-57 7.9-8.6 19.1-25 25.6-37.4 2.2-4.1 4.3-7.5 4.8-7.5s1.8.8 2.8 1.7c1.5 1.3 3.7 1.6 11.1 1.5 14.9-.2 34.5 5.3 51.1 14.5 3.4 1.8 7.3 3.9 8.9 4.5 1.5.7 2.7 1.6 2.7 2 0 .4 1.3 1.4 2.8 2.2 1.6.8 6.4 4.4 10.6 8 4.2 3.6 8.1 6.6 8.5 6.6.5 0 2.6 1.7 4.8 3.7 2.1 2.1 5.4 4.9 7.3 6.3 1.9 1.4 7 5.6 11.3 9.5 4.3 3.8 10.2 9 13 11.5 2.9 2.4 6.5 5.9 8.1 7.7 1.6 1.8 6.7 6.6 11.5 10.5 4.7 4 9 7.9 9.4 8.6.5.7 2.9 3.5 5.4 6.2 2.6 2.8 5.3 6.1 6.2 7.3 1.1 1.7 13.8 16.4 16.1 18.7.3.3 1.8 2.4 3.3 4.6 1.5 2.3 4.1 5.6 5.7 7.5 1.7 1.8 3 3.5 3 3.8 0 .4 1.1 1.8 2.5 3.3 2.4 2.6 15 20.8 29.9 43.3 10.8 16.4 13.4 20.5 15.7 25.5 1.2 2.5 2.7 5.2 3.4 6 .7.8 2.6 4 4.3 7 1.6 3 4.7 8.6 6.8 12.5 2.2 3.8 5 9.5 6.3 12.5 1.3 2.9 3.3 7 4.6 9 1.2 1.9 5.8 10.7 10.2 19.5 4.4 8.8 8.5 16.9 9.1 18 .6 1.1 3.2 6.9 5.8 13 2.6 6 6 13.9 7.7 17.5 1.6 3.6 3.6 8.5 4.2 11 1.6 5.7 4.8 14.3 5.6 15 1.1 1 5.9 14.2 14.4 40 3.6 10.7 6.9 20.4 7.5 21.5 2 4.3 7.1 18.8 12 34.5 6.1 19.2 12.2 37.4 15 44.5 1.1 2.7 2.6 7.5 3.4 10.5 2.6 9.7 4.6 16.5 5.5 18 1.6 3 10.8 34.7 13.1 45.2.5 2.7 1.5 8.1 2 12 .5 4 1.9 11.3 2.9 16.3 1.1 4.9 2.5 12.1 3.1 16 .6 3.8 1.5 8.3 2 10 .5 1.6 1.6 5.7 2.4 9 3.7 14.9 7.7 22.5 12.8 24.1 1.1.3 3.1-.2 4.5-1.1 2.3-1.6 2.5-2.1 2-6.5-.3-2.7-1.1-5.7-1.6-6.7-1.8-3.2-4.9-15.6-6.1-24.3-.6-4.7-1.8-10.5-2.6-13-1.3-4.4-4.6-21-5.9-30-1.7-12.2-12.6-48.6-24.6-82.5-1.2-3.3-7-20.4-13-38-13.9-41.3-15.7-46.4-17.4-50-.7-1.7-2.8-7.7-4.6-13.5-3.9-12.8-11.5-33.6-16.3-44.8-2-4.6-3.6-9-3.6-9.7 0-.7-.4-1.5-.8-1.7-.5-.2-1.8-3-2.9-6.3-1.1-3.3-3.1-8.5-4.4-11.5-4.3-10.2-42.6-86.6-44.7-89.4-.5-.6-3.1-5.2-5.6-10.1-5.3-10.1-11.7-20.4-22.3-36.3-13-19.2-17.9-26.6-22.4-33.5-2.4-3.7-4.7-6.7-5.1-6.7-.4 0-2.1-2.1-3.9-4.8-1.7-2.6-5.1-6.7-7.5-9.2-4-4.1-6.5-7.3-18.3-22.5-7.9-10.3-61.3-62.3-70.2-68.5-1.9-1.3-6.6-5.1-10.5-8.4-12.9-11-27.2-20.9-39.9-27.8-6.8-3.6-8.2-4.2-21.6-9.1-5.4-2-10.5-4-11.5-4.6-3.1-1.6-13.3-3.1-21.6-3.1-8.4 0-8.9-.4-6.5-5 1.2-2.3 2.9-7.2 6-17 2.7-9 2.3-31.9-.9-44.4-1.8-6.8-8-20.7-12.7-28.1-3.6-5.8-13.3-19.2-15.6-21.6-.9-.9-3.6-4.2-6-7.3-4.5-5.7-27.4-27.6-28.9-27.6-.4 0-2.8-2-5.3-4.6-12.5-12.8-44.8-31.1-61.4-34.9-3.3-.7-8.5-2-11.5-2.9-3-.9-6.9-1.6-8.7-1.6-1.7 0-4.3-.4-5.7-1-6-2.3-55.7-3.4-68.6-1.5zm44.5 15c8.8.3 17.6 1 19.5 1.5 1.9.6 4.9 1 6.7 1 1.7 0 8.8 1.4 15.7 3.1 11.9 2.9 24 7.7 33.1 13.4 2.2 1.4 4.9 2.9 6 3.4 3 1.3 15.7 11.4 27.1 21.4 5.5 4.9 11.1 9.4 12.4 10 2.3 1.2 14.6 14.5 18.5 20.1 1.1 1.6 3 4.1 4.3 5.7 4.6 5.6 15 21.9 17.7 27.5 6.3 13.2 8.8 31 6.2 42.4-3 12.6-8 25.7-15.8 41-11.7 23-27 42.5-43.5 55.1-9 7-27.1 18.9-28.6 18.9-1.5.1-5.6 3-4.2 3 2.1.1-21.7 11.2-29.1 13.5-4.3 1.5-8.4 3-9 3.5-.5.4-3.9 1.6-7.5 2.5-3.6.8-7.6 2-9 2.4-2.6.9-9.1 2.7-15 4.1-1.9.5-6.4 1.6-9.9 2.5-3.6 1-9.2 2.1-12.5 2.6-3.4.6-8.8 1.5-12.1 2-16.2 2.8-46.3 2.7-60 0-27.6-5.6-51.7-12.1-53.1-14.2-.3-.5-1.5-.9-2.7-.9-1.3 0-3.1-.6-4.2-1.4-1.1-.7-3.6-1.7-5.5-2.1-1.9-.4-5-1.6-6.9-2.6-1.8-1.1-6-3.1-9.3-4.5-10-4.2-26.8-18.2-33-27.4-1.7-2.5-3.6-5-4.3-5.5-2.1-1.8-10.3-19.8-13.1-29-2.6-8.2-2.8-10.4-2.9-25 0-14 .3-16.9 2.3-23.5 1.3-4.1 2.7-9 3.2-10.7 1.2-4.8 12.1-27.1 13.6-27.7.7-.3 1.9 1.3 2.9 4 1.9 5.1 7.3 9.7 10.7 9.2 2.7-.4 2.8-2.6.8-15.3-1.7-10.4-1.1-12.7 3.9-15 4-1.8 8.4-5.8 9.4-8.6.8-2.4-2.7-4-7.5-3.3l-4.1.7.7-4.1c1.8-11.4 20.4-34.7 38.8-48.8 20-15.3 39.1-25.3 61.3-32.1 4.4-1.3 9.1-2.9 10.5-3.5 2.3-1 8.7-2.6 18.1-4.7 1.9-.4 4.1-1.1 4.8-1.5 1.9-1.2 30.1-4.4 34.6-4 2.2.2 11.2.6 20 .9zm899.1 710c5.1 12.9 9 27.2 10.9 39.5 3.5 23.8 8.4 46.9 11.5 55 .6 1.4 1.2 4.7 1.5 7.5.3 2.7.8 6.1 1.1 7.5 3.6 14.4 1.3 29.5-6.2 42-.8 1.4-2.5 4.7-3.8 7.5-1.3 2.7-4.7 8.1-7.6 11.9-2.9 3.9-6.3 8.7-7.6 10.8-2.5 4-12.1 10.8-20.4 14.6-7.2 3.3-14.9 4.5-25.7 4-8.6-.3-10.5-.7-13.6-2.8-3.1-2.1-6.4-6.7-5.5-7.5.2-.1 3.5-1.3 7.3-2.5 3.9-1.3 7.5-2.7 8-3 .6-.4 7-2.7 14.3-5 7.2-2.3 13.5-4.6 13.8-5.1.3-.5 2.2-1.6 4.1-2.4 5.4-2.3 16.8-10 19.1-13 4.7-6 3.2-13.6-3.1-15.3-3-.9-3.5-.6-8.7 4.5-6.5 6.5-15.7 11.4-21.9 11.8-3.6.3-4.9.9-6.5 3-1.9 2.7-18.8 11.5-21.9 11.5-.8 0-3.4.9-5.8 2s-5.4 2-6.7 2c-3.8 0-14.4 4-17.4 6.5-1.5 1.3-3.8 2.7-5 3-1.3.4-5.4 2-9.3 3.7-9.9 4.3-10.6 4.6-14 5.3-2.5.5-12.4 4.5-25 10-1.6.7-5 2-7.5 2.8-2.5.9-9.7 3.4-16 5.7-6.3 2.3-14 4.9-17 6-3 1-9.1 3.2-13.5 5-4.4 1.8-12 4.7-17 6.5-4.9 1.8-11.4 4.2-14.2 5.4-13 5.2-16 6.4-18.8 7.4-1.6.6-4.3 1.6-6 2.3-1.6.6-5 1.9-7.5 2.7-2.5.9-10.1 3.7-17 6.2-6.9 2.6-16.1 5.9-20.5 7.5-4.4 1.6-12.4 4.4-17.8 6.3-5.4 1.9-10.3 3.9-11 4.5-.7.5-3.7 1.9-6.7 3-20.4 7.6-27.3 10.4-30.2 12.2-1.8 1.1-4 2-4.8 2-.8 0-2.6.9-4 2s-3.1 2-3.8 2c-1.6 0-36.6 17.4-40.3 20.1-1.5 1-3.5 1.9-4.5 1.9-.9 0-4.9 1.9-8.8 4.2-6.6 3.9-16.2 8.8-61.6 32-9.6 4.9-21.3 10.5-26 12.4-4.7 2-13 6.1-18.5 9.2-16.3 9.1-27.8 15.2-31.5 16.8-1.9.8-5.1 2.5-7 3.8-1.9 1.3-5.1 2.7-7.1 3-3.5.6-3.6.5-4.7-3.3-2.1-7-1.8-7.6 6.1-11.9 3.9-2.1 10.1-5.5 13.7-7.4 3.6-2 7.6-3.9 9-4.3 1.4-.4 3.2-1.3 4-2 1.4-1.2 10.6-6 75-38.8 26.5-13.5 38.8-19.8 42-21.6.8-.5 3.8-2.2 6.7-3.9 2.8-1.7 6.1-3.3 7.2-3.7 1.2-.3 7.2-3.5 13.4-6.9 6.1-3.5 17.3-9.5 24.7-13.3 7.4-3.9 14.9-7.8 16.5-8.7 1.7-.8 4.8-2.3 7-3.2 2.2-.9 9-4 15-6.9 6.1-2.9 12.6-5.8 14.5-6.5 1.9-.7 7.6-3.2 12.5-5.5 16.9-8 38.2-17.5 39.2-17.5.6 0 2.1-.8 3.4-1.8 1.3-1 9.8-5.3 18.9-9.6 9.1-4.3 20.6-9.8 25.5-12.2 5-2.4 9.7-4.4 10.4-4.4.8 0 4.5-1.8 8.3-4 3.9-2.2 7.6-4 8.4-4 .8 0 4.7-1.6 8.6-3.6 16.5-8.2 25.4-12.7 26.3-13.4.6-.4 5.7-2.9 11.5-5.5s15.9-7.2 22.5-10.1c6.6-3 12.9-6 14-6.6 4.7-2.7 41.4-20.8 42.2-20.8.4-.1 5.3-2.3 10.8-4.9 9.5-4.6 10-4.8 10.3-2.7 1.5 9.6 5.3 15.4 11.9 18.2 4.9 2.1 8.8 1.7 12.3-1.3 4.1-3.4 4.8-5.5 5.5-15.6.6-8.1.6-8.2-2.5-12-1.8-2.1-5.3-4.9-7.9-6.3-2.5-1.4-6.1-3.6-8-4.9-1.9-1.4-4.1-2.5-5-2.5-2.1.1-5.1 2.6-8.5 7.2-2.1 2.8-5.8 5.1-16.4 10.4-16.4 8-15.2 7.3-28.1 14.6-5.8 3.2-10.9 5.8-11.4 5.8s-5.3 2.2-10.6 4.9-16.8 8.4-25.6 12.6c-8.8 4.3-19.1 9.3-23 11.2-15.5 7.8-18.6 9.3-19.6 9.3-.6 0-3.6 1.5-6.7 3.3-3.1 1.8-7.6 4-9.8 4.9-2.3.9-5.8 2.8-7.9 4.2-2.1 1.4-4.1 2.6-4.6 2.6-.4 0-7.7 3.4-16 7.5-8.4 4.1-15.8 7.5-16.5 7.5-.8 0-4.9 1.8-9.3 4-4.3 2.2-8.2 4-8.5 4-.4 0-6.2 2.7-12.9 5.9-6.7 3.3-14.7 7-17.7 8.4-3 1.4-9.8 4.5-15 7-5.2 2.4-10.6 4.8-11.9 5.2-7 2.1-56 26.5-60.1 29.9-1.4 1.2-4.6 2.9-7 3.9-8.1 3.4-23.4 11-30.5 15.3-3.8 2.3-9.2 5.3-12 6.7-10.5 5.2-33.1 17-35 18.3-1.1.8-2.5 1.4-3.1 1.4-.7 0-4.7 2-9 4.4-4.4 2.4-11.3 5.9-15.4 7.7-4.1 1.8-8.8 4.2-10.5 5.3-1.6 1.1-7.9 4.6-14 7.6-6 3.1-17.5 9.2-25.5 13.5-8 4.3-17 8.9-20.2 10.1-3.1 1.3-7.9 3.7-10.7 5.4-2.9 1.6-5.6 3-6.1 3-1.1 0-6.3-7.7-9.6-14.2-2.7-5.4-2.3-7.1 1.9-8.4 1.2-.3 6-2.4 10.7-4.6 4.7-2.2 11-5.1 14-6.5 12.5-5.7 18.5-8.6 38-18.2 20-9.8 23-11.4 37.5-19.5 3.9-2.2 9-5 11.5-6.3 2.5-1.3 8.1-4.6 12.5-7.3 4.4-2.6 15.4-8.7 24.5-13.3 9.1-4.7 17.9-9.2 19.5-10.1 1.7-.8 9.1-4.3 16.5-7.7 7.4-3.3 18.9-8.7 25.5-11.9 6.6-3.2 15.8-7.6 20.5-9.9 4.7-2.2 13.5-6.6 19.6-9.8 6-3.2 13.5-7 16.5-8.4 5.5-2.7 13.9-7.1 30.9-16.2 20.3-11 28.3-15.1 50.8-26.2 12.8-6.3 23.5-11.5 23.7-11.5.5 0 22.1-10.2 29.5-13.9 3-1.6 6.6-3.2 8-3.6 1.4-.4 5-2.2 8-4 3.1-1.7 6.7-3.5 8.2-3.8 1.5-.4 3.3-1.4 4.2-2.2.8-.8 1.8-1.5 2.3-1.5.4 0 4.4-1.8 8.8-3.9 12.2-6 42.4-20.1 43.1-20.1.3 0 4.7-2 9.7-4.4 11.6-5.6 25.9-11.6 27.5-11.6.7 0 3.5-1.1 6.2-2.5s5.5-2.5 6.1-2.5c.6 0 3.7-1.1 6.8-2.4 3.1-1.3 7.6-3 10.1-3.7 2.5-.7 5.7-2.6 7.2-4.1 1.5-1.7 3.7-2.8 5.2-2.8 1.6 0 4.1-1.3 6.2-3.3 2.8-2.6 3.6-4.1 3.8-7.3.1-2.2 1.2-5.7 2.4-7.8 1.2-2 2.2-4.6 2.2-5.6s.5-2.2 1-2.5c.6-.3 1-.1 1 .6 0 1.6 8.6.4 11.6-1.6 1.3-.8 3-1.5 3.9-1.5.8 0 2.3-1.5 3.2-3.4 1-1.8 3.1-5.2 4.6-7.6 2.6-3.8 2.7-4.5 1.6-7.1-1.9-4.7-6.1-7.1-11.6-6.7-4.4.3-4.8.6-7.3 4.8-1.5 2.5-3 6.3-3.4 8.4-1.5 7.8-2.2 8.5-8.5 8-3.1-.3-7.5-.7-9.8-1-4.1-.6-4.4-.5-10.7 6-6 6-9.6 8.2-9.6 5.6 0-1.6-5.7-4-9.8-4-6.7 0-16.6 8.2-15.7 13 .6 3-.1 4.1-3.5 5.6-2.3 1-11.7 5.5-13.1 6.1-.3.2-1.1-.7-1.8-2.1-.7-1.3-2.4-2.9-3.8-3.5-3.1-1.4-5.7-.1-7.9 4-3.2 6.2-11.2 12.5-29.4 22.9-6.9 4-38.5 20.1-46 23.5-2.5 1.2-6.3 3.1-8.5 4.3-3.6 1.9-26.6 13.3-37 18.4-2.2 1-5.8 2.8-8 4-2.2 1.1-5.3 2.8-7 3.6-3.8 2-13.8 8.3-14.5 9.2-.3.3-1.9 1.2-3.7 1.9-1.7.7-4.6 2.4-6.4 3.7-1.8 1.3-4.8 2.9-6.8 3.5-2 .7-5.3 2.3-7.3 3.6-2.1 1.2-4.3 2.3-5 2.3-1.5 0-19.8 7.1-28.3 11-3.3 1.5-7.8 3.3-10 4-2.2.7-4.4 1.6-5 2-1.7 1.4-19.7 9.1-26.5 11.5-3.6 1.2-8.7 3.3-11.5 4.7-2.7 1.4-6.2 2.8-7.7 3.2-1.4.3-8.9 3.5-16.6 7.1-7.8 3.6-14.7 6.5-15.4 6.5-.7 0-2.6.7-4.3 1.6-1.6.9-5.7 2.7-9 3.9-9.1 3.5-26.8 10.8-37.5 15.4-5.2 2.3-12.2 5-15.5 6.1-7.3 2.3-19.5 7.3-24.4 10-2 1.1-6.1 2.9-9.1 3.9-3 1.1-11 4.5-17.8 7.5-6.8 3.1-12.9 5.6-13.5 5.6-.7 0-2.5.7-4.2 1.6-1.6.9-5.9 2.7-9.5 4.1-8.4 3.2-8.8 3.4-19.4 8.2-4.9 2.3-9.5 4.1-10.3 4.1-.7 0-2.1.4-3.1 1-3.3 1.8-14.2 5.7-13.7 4.9.8-1.2 17.8-10.2 29.5-15.4 10.3-4.7 41.7-19.7 49.5-23.7 14.8-7.5 67.6-34 70.5-35.2 1.9-.9 7.6-3.8 12.5-6.6 5-2.8 10.1-5.5 11.5-6.1 1.4-.6 17.4-8.4 35.5-17.4 45.7-22.5 82.6-40.5 83.1-40.5.4 0 16.5-8 24.9-12.3 1.7-.8 5.9-2.7 9.5-4.2 3.6-1.5 7-3.1 7.5-3.5.6-.4 7.8-3.9 16-7.7 8.3-3.9 21.1-10 28.5-13.6 18.3-8.9 39-18.8 47.5-22.7 3.9-1.8 10.2-4.7 14-6.5 3.9-1.8 8.1-3.6 9.5-4 1.4-.4 3.7-1.6 5.2-2.6 1.4-1.1 3-1.9 3.5-1.9 1.5 0 20.7-7.7 29.3-11.7 4.7-2.2 11.4-5.1 15-6.3 3.6-1.2 6.9-2.6 7.5-3.1.5-.5 1.8-.9 2.8-.9 1 0 3.2-.9 4.8-2.1 3.3-2.3 3.9-6.2 1.4-9.5-.8-1-1.5-2.9-1.5-4 0-3.8 4-15.4 6.3-18.1 5-5.8 25.6-19.4 34.2-22.6 10.8-4.1 18.3-7.1 20.7-8.3 3.6-1.9 19-6.4 20.8-6.1.8.1 2.8 3.7 4.6 8.2zm-376.2 229c-2.2 1.7-3.4 1.9-3.4.6 0-.5.8-1.2 1.8-1.4 3.2-.9 3.6-.7 1.6.8zm209.7 1.5c-1.3 1.1-2.9 2-3.7 2-.8 0-1.4.4-1.4.9s-1 1.3-2.2 1.7c-1.3.3-6.3 3-11.3 5.8-4.9 2.8-11.9 6.4-15.5 8-3.6 1.6-9.4 4.6-13 6.6-3.6 2.1-7.6 4.1-9 4.5-1.4.4-5 2-8 3.6s-5.9 2.9-6.4 2.9c-.6 0-1.9.8-3 1.8-2.1 1.8-13.5 7.2-15.3 7.2-.8 0-7 3-23.3 11.5-3.6 1.9-10.8 5.3-16 7.6-5.2 2.3-12 5.6-15 7.4-3 1.8-15.8 8.5-28.5 15-26.2 13.4-39.5 20.4-41 21.5-2.1 1.5-21.2 11-27.5 13.6-3.5 1.4-8.3 3.9-10.5 5.4-2.2 1.5-6.3 3.9-9 5.2-2.8 1.4-19.4 9.8-37 18.6-17.6 8.9-32.5 16.2-33.1 16.2-.7 0-1.9.6-2.6 1.3-.7.7-3.8 2.5-6.8 4s-7.5 3.9-10 5.3c-2.5 1.5-11.3 6.1-19.6 10.4-8.2 4.2-16.9 8.9-19.2 10.4-5.4 3.4-21.3 10.8-21.9 10.2-.2-.2-.9-3.3-1.5-6.8-1.2-6.5-.5-11.6 1.1-8.9.7 1 1 .9 1.4-.3.4-.9 5.3-3.9 10.9-6.7 5.7-2.7 13.2-6.5 16.8-8.3 3.6-1.8 8.8-4.4 11.5-5.7 2.8-1.4 8.2-4.1 12-6.1 3.9-2 12.2-6.2 18.5-9.4 6.3-3.1 19.8-9.9 30-15.1 10.2-5.1 19.2-9.3 20-9.3.9 0 2.5-.6 3.6-1.4 1.1-.8 12.1-6.2 24.4-12.1 12.4-5.8 26.6-12.6 31.5-15 5-2.4 11.7-5.5 15-7 3.3-1.5 6.7-3.3 7.5-3.9.8-.7 3.3-1.8 5.5-2.5 2.2-.8 6-2.6 8.5-4.1 2.5-1.5 5.6-3.1 7-3.5 1.4-.4 3-1.1 3.5-1.6.6-.4 5.7-3.1 11.5-5.9 11.3-5.5 11.5-5.6 17.5-8.7 8.3-4.4 29.4-14.2 38-17.8 5-2 11.7-5 15-6.6 3.3-1.6 6.6-2.9 7.3-2.9.8 0 2.6-.6 4-1.4 1.5-.8 6.5-3.1 11.2-5.1 4.7-2.1 10.7-4.8 13.4-6.1 2.8-1.3 5.6-2.4 6.4-2.4.8 0 2.6-.6 4-1.4 2.6-1.4 8.8-4.2 20.2-9.3 3-1.4 9.7-4.5 14.7-6.9 5.1-2.4 9.9-4.4 10.5-4.4.7-.1 2.9-.9 4.8-2 4.7-2.6 7.3-2.6 4.1 0zm-214.1.4c0 .3-4.4 2.6-9.7 5.1-10.8 5.2-11.9 5.7-17.2 8.7-4.4 2.5-5.9 3.2-51.1 25.6-20.1 9.9-38.7 18.7-41.5 19.6-2.7.9-7 3-9.5 4.6-2.5 1.6-5.4 3-6.5 3-1.2 0-2.5.4-3 .9-.6.5-6.4 3.2-13 6.1-6.6 2.9-16.3 7.2-21.5 9.7-5.2 2.5-10.3 4.6-11.2 4.8-.9.2-5.9 2.4-11 4.8-5.1 2.5-12.2 5.7-15.8 7.2-3.6 1.5-9.8 4.3-13.8 6.1-4.1 1.9-8 3.4-8.8 3.4-.8 0-1.4.4-1.4 1 0 .5-.6 1-1.2 1-1.8-.1-8.3-9.9-7.2-10.9.5-.5 3.6-2 6.9-3.4 21.5-9 28.5-12 32.5-14.1 2.5-1.3 6.1-2.7 8-3.1 1.9-.4 4-1.1 4.5-1.5.6-.4 3.8-1.8 7.3-3 3.4-1.3 6.5-2.7 6.8-3.1.3-.5 1.2-.9 1.9-.9.8 0 4.4-1.4 8-3 3.6-1.7 6.8-3 7-3 .2 0 2.9-1.1 5.9-2.5 3-1.4 5.9-2.5 6.4-2.5.6 0 2.7-.9 4.9-1.9 9.2-4.7 46.1-20.5 59.3-25.4 5.2-2 16-6.3 24-9.6 8-3.2 18.1-7.4 22.5-9.1 4.4-1.8 8.5-3.7 9.1-4.1.6-.5 2.8-1.5 5-2.3 2.1-.8 7.5-3.1 11.9-5 7.2-3.2 11.5-4.4 11.5-3.2zm-407 24.6c27 2 35.8 3 41.6 5 3.1 1.1 6.4 2 7.3 2 .9 0 3.4.9 5.6 2 2.2 1.1 4.2 2 4.6 2 1.9 0 21 9.6 26.3 13.2 3.4 2.3 8.1 5.5 10.6 7.1 9.7 6.5 31.8 27.5 34.6 32.8.7 1.5 2.9 3.7 4.9 4.9 1.9 1.2 3.5 2.9 3.5 3.9 0 2-1.9 4.1-3.8 4.1-1.5 0-6.6 2.3-44.2 19.5-13.5 6.2-31.5 14.1-40 17.5-8.5 3.4-17.2 7-19.3 8.1-2.1 1-4.2 1.9-4.8 1.9-.6 0-3.5 1.1-6.5 2.5s-5.7 2.5-6.1 2.5c-.4 0-3.6 1.3-7.2 2.9-3.6 1.6-9.5 4.1-13.1 5.6-3.6 1.5-10.8 4.7-16 7-5.2 2.3-15.1 6.6-22 9.4-6.9 2.9-15.2 6.5-18.5 8.1-9.1 4.3-14.5 6.6-19.8 8.4-2.6.9-6.5 2.5-8.5 3.5s-8 3.5-13.2 5.6c-5.2 2-11.1 4.5-13 5.5-4.7 2.5-22.7 10.1-37.5 16-12.5 4.9-17.2 6.9-29.3 12.6-3.9 1.9-7.6 3.4-8 3.4-.8 0-15.9 6-23.7 9.5-1.6.7-4 1.6-5.1 1.9-1.2.4-2.9 1.5-3.9 2.6s-2.4 2-3.2 2c-.7 0-2.1.4-3.1.9-.9.5-4.2 1.9-7.2 3.1-3 1.2-9.1 3.9-13.5 6.1-4.4 2.1-10.3 4.5-13.1 5.3-2.8.8-7.3 2.5-10 3.9l-5 2.5-6.8-4.3c-3.7-2.3-8.6-4.8-10.9-5.5-2.3-.7-6.2-1.9-8.7-2.8-5.8-2.1-22.9-4.1-23.3-2.8-.2.5-.9.6-1.6.2-.7-.5-6-.8-11.8-.7-19.2.4-33.2 2.9-47 8.7-4.7 1.9-8.9 3.1-9.2 2.7-.3-.5-1.9-2.8-3.4-5.1-4.1-6.3-14.5-11.2-23.7-11.2-11.2 0-19.3 3.3-30 12.3-7.2 5.9-22.5 27-27.4 37.5-.9 1.8-2.4 4.4-3.5 5.8-4.7 6-14.4 29.3-17.2 41.4-.7 3-2.1 6.4-3 7.4-1.9 2-9.4 4.5-13.7 4.6-1.3 0-3.6.7-5 1.4-2.4 1.4-14.4 4.6-16.8 4.6-.7 0-.7-2.9-.1-8.3.5-4.5.6-11.5.2-15.4-.6-6.4-1-7.5-3.3-9.2-4.7-3.3-13.1-2.8-13.3.7-.1 2.1.1 11.3.6 25.8.3 9.6.2 11.4-1.5 14-3.4 5.1-1.7 13.4 2.8 13.4 1.3 0 1.4.2.4.9-1 .6-1.1 2.1-.3 7.2.6 3.5 1.7 14.7 2.5 24.8 1.6 19.8 1.3 22.1-2.9 22.1-3.3 0-5.5 3.5-4.8 7.4.9 4.6 3.2 6.9 6.5 6.2 3.5-.7 4.8 1.5 5.4 9.2.2 3.2.9 7.7 1.5 10.2.6 2.5 1.2 7 1.4 10 .2 3 .7 6.7 1.1 8.3.5 2.1.1 3.3-1.7 5.2-4.5 4.7-5.5 6.1-5.5 8.3 0 1.2.4 2.2.8 2.2s.8 1.1.8 2.4c0 2.3 4.9 7.6 7.1 7.6 1.5 0 3.8 5.5 5.4 13.1.8 4.1 1.5 7.9 1.5 8.6 0 .7-2 2.1-4.5 3.2-5.3 2.4-6.5 5.3-4 10.5 1.3 2.8 2.3 3.6 4.4 3.6 4.6 0 7.1 1.1 7.1 3.1 0 1.9.8 5.5 3.4 15.9 3.1 12.1 4.6 16.4 6.1 17.2.8.5 1.5 1.6 1.5 2.4 0 3.1 8.2 4 11.8 1.1 1.7-1.4 1.5-8.3-.4-10.1-.9-.9-1.9-4-2.4-6.9-.4-2.8-1.8-8.8-2.9-13.2-3.2-12.1-2.6-15.7 2.6-16.9 3.2-.8 11.6-3.9 18.3-6.9 8-3.5 9.5-4 10.4-3.8.6.1 1.9-.2 3-.8 27.4-13.2 27-13.1 33.7-8 2.9 2.1 6.2 4.1 7.3 4.5 5.1 1.4 15.3 5.8 17.8 7.5 1.4 1.1 3.3 1.7 4 1.4.8-.3 2 .1 2.7.9.7.9 2.9 1.8 5 2.2 2 .4 5.4 1.5 7.6 2.6 2.2 1 5.5 2.1 7.3 2.3 1.7.2 4.7 1.1 6.5 1.9 1.7.8 5.5 2 8.2 2.6 2.8.6 7.7 1.8 11 2.7 14.3 3.5 30.5 5.4 47.5 5.6 13.1.1 13.2 0 33.9-6.4 5.1-1.6 9.9-2.9 10.6-2.9.7 0 2.3-1 3.7-2.3 1.4-1.2 4-3.1 5.9-4.1 1.9-1.1 3.9-2.5 4.4-3.1.6-.7 4.7-4 9.2-7.3 4.4-3.4 8.3-6.6 8.5-7.1.1-.5 3-3.8 6.3-7.3 6.1-6.5 12.1-14.2 15.7-20.7 8-13.8 14.1-27.9 17.3-39.6.9-3.3 2.5-8.7 3.5-12 4-12.8 6.1-28.8 6.1-45.6 0-8.3.3-11.9 1.1-11.9 1.2 0 28.4-13.5 30.4-15.1.6-.5 2.9-1.5 5.2-2.3 4.4-1.6 18.7-8.1 21.2-9.7.8-.5 3.5-1.9 6-3 4.9-2.2 21-10.3 27.5-13.7 3.5-1.9 14.9-7.3 33.5-15.9 5.6-2.6 9.5-4.5 16.5-8.2 2.2-1.1 7.8-3.8 12.5-6s14.6-7.2 22-11.1c21.9-11.6 33.6-17.8 38.2-20.4 2.4-1.3 5.4-2.7 6.7-3.1 1.4-.4 5.3-2.5 8.8-4.6 3.4-2.1 7.8-4.5 9.6-5.3 1.8-.7 5.2-2.5 7.5-4 2.3-1.4 9.7-5.5 16.5-9 6.7-3.5 15.6-8.3 19.7-10.6 4.1-2.4 12.2-6.8 18-9.8 5.8-3 14.2-7.6 18.8-10.3 4.5-2.7 8.2-4.6 8.2-4.2 0 .3.8-.1 1.8-.9 2-1.8 7.8-5 27.2-15 8-4.2 19.3-10.1 25.2-13.2 6-3.1 11.2-5.6 11.7-5.6 1.7 0 2.3 3.6 2.8 19 .4 10.9 0 19.8-1.1 30-.9 8-1.9 16.5-2.1 19-1 8.4-6 32.3-8.1 38.7-2.6 7.8-17.2 37.5-20.4 41.5-1.7 2-3 4.1-3 4.7 0 1-14.5 16-22 22.7-2.5 2.2-7 5.8-10.1 8-3 2.1-9.1 6.5-13.5 9.7-7.2 5.3-13.6 9.7-38.4 26.3-4.7 3.2-11.2 7.8-14.5 10.3-3.3 2.6-8 6-10.5 7.6-2.5 1.6-6 4.2-7.7 5.7-4.7 3.9-19.2 13.2-29 18.4-2.3 1.3-5.2 3-6.5 3.8-1.3.8-4.7 2.4-7.7 3.6-5.6 2.2-12.4 5.1-17.5 7.6-1.6.8-3.4 1.4-4.1 1.4-1.4 0-38.5 16.6-43 19.3-1.1.6-9.2 4.8-18 9.3-27.9 14.2-33.7 17.5-48.5 27.7-8 5.5-16.1 11.2-18 12.7-1.9 1.4-5.3 3.7-7.5 5-6.5 3.9-17.5 12.7-24.9 19.8-6 5.8-7 7.2-7.4 10.9-.4 3.8-.2 4.3 2.2 5.4 1.4.7 2.6 1.5 2.6 1.9 0 .4-1.5 2.3-3.2 4.2-1.8 1.9-5.1 5.6-7.3 8.3-2.2 2.7-6 7.3-8.5 10.3-6.9 8.3-33.9 34.9-39 38.4-2.5 1.7-4.9 3.6-5.5 4.2-2.1 2.3-20.5 17.3-25.6 20.8-9.5 6.6-16.1 10.8-16.9 10.8-.5 0-2.1 1-3.7 2.3-3.2 2.7-17.7 11.7-18.8 11.7-.3 0-2.1 1.1-3.8 2.4-4.7 3.6-21.3 12.2-28.2 14.6-3.3 1.2-6.9 2.5-8 3-4.9 2.3-18.5 6.7-24 7.9-3.3.7-7.3 1.7-8.9 2.2-1.6.5-4.2.9-5.7.9s-3.8.4-5.1 1c-4.6 1.9-38.9 4.8-53.8 4.5-17.8-.4-50.3-4.6-51.6-6.6-.3-.5-2.3-.9-4.5-.9-2.1 0-4.7-.4-5.7-.9-.9-.5-5.1-1.7-9.2-2.6-4.1-1-7.9-2.2-8.5-2.6-.5-.5-2.4-.9-4.1-.9-1.8 0-3.5-.4-3.9-1-.3-.5-2-1.4-3.8-1.9-5.9-1.8-18.2-6.3-19.2-7.1-.5-.4-2.8-1.3-5-2-5.3-1.7-11.8-5.3-15.6-8.4-1.7-1.4-3.6-2.6-4.3-2.6-.6 0-4-2.2-7.4-5-3.4-2.7-6.7-5-7.2-5-.6 0-1-.5-1-1 0-.6-1-1.5-2.3-2.1-1.3-.6-3.2-2.6-4.2-4.5s-2.1-3.4-2.5-3.4c-.3 0-3.3-2.5-6.5-5.6-3.3-3.1-8.7-7.9-12-10.7-3.3-2.7-8.3-7.3-11.1-10.1-2.8-2.8-6.6-6.6-8.5-8.4-4.8-4.6-6.9-7-6.9-8.1 0-.6-1.6-2.2-3.5-3.7-1.9-1.4-3.5-3.2-3.5-3.9 0-1-5.4-7.4-13.5-16-1.1-1.2-3.3-4.1-5-6.6-1.6-2.4-3.3-4.5-3.7-4.7-1.1-.5-6.5-8.6-8.8-13.3-1.1-2.1-2.5-3.9-3-3.9-.6 0-1-.6-1-1.4 0-.7-.8-2.4-1.9-3.7-1-1.3-2.4-4.1-3.1-6.3-.8-2.4-1.5-3.4-2-2.6-.5.8-.9.2-1.3-1.6-.3-1.6-1.8-8.3-3.5-14.9-5.4-22.1-6.3-31.5-6.2-61.5.2-28.8.1-27.4 1.1-25.8.5.7.6-.6.3-3.3-.4-2.5-.1-8.5.5-13.3.7-4.8 1.4-14 1.7-20.4.3-6.5 1.2-16.9 2-23.2.8-6.3 1.7-13.5 2-16 .7-6.9 2.1-14.2 3.2-17.5 2.3-6.8 3.2-10.3 3.2-12.6 0-1.3.7-4.7 1.6-7.4 2.9-9 3.4-11 4-15.8.4-2.5 1.1-4.4 1.5-4.1.5.3.9-.5.9-1.8s.7-3.2 1.5-4.2 1.2-2.3.9-2.8c-.4-.6-.2-2 .4-3.1.6-1.2 2.1-5.1 3.3-8.7 1.3-3.6 3.1-8 4.1-9.8 1-1.8 1.8-4.1 1.8-5.1 0-2 13.3-28.6 15.5-31.1 2.4-2.7 6.4-8.4 8.5-12.4 1.2-2.1 4.9-6.9 8.3-10.6 3.4-3.7 7.1-7.8 8.2-9.1 1.1-1.3 3.8-3.8 5.9-5.4 2.2-1.7 5.3-4.1 6.9-5.5 3.2-2.6 4-3.1 20.8-14.4 5.7-3.8 13.7-9.4 17.7-12.3 4-3 11.8-7.9 17.4-10.9 5.6-2.9 10.9-6.1 11.8-6.9.8-.8 3.6-2.4 6-3.6 2.5-1.1 6.8-3.4 9.5-5 2.8-1.6 5.7-3.2 6.5-3.5.8-.4 6.5-3 12.5-6 18.2-8.7 42.9-18.4 47.2-18.4 1.2 0 2.4-.4 2.8-.9.3-.5 4.9-2 10.3-3.2 5.3-1.2 12.2-2.8 15.2-3.6 3-.8 6.5-1.6 7.7-1.8 1.1-.2 3-.6 4.2-1 1.1-.3 5.3-1.1 9.3-1.6 8.2-1.1 15.9-2.3 23.3-3.7 2.8-.5 11.5-1.5 19.5-2.2 8-.6 15.2-1.4 16-1.8.8-.3 3.3-.6 5.5-.7 2.2-.1 7.1-.7 10.9-1.3 3.8-.6 7.3-.9 7.8-.6.4.3 1.6 0 2.6-.5 1.1-.6 7.1-1.3 13.3-1.6 6.3-.3 13-.8 14.9-1.1 1.9-.2 8.4-.7 14.4-.9 11.5-.4 22.1-2.3 32.1-5.7 3.3-1.1 6.9-2 8-2.1 3.9-.1 22-10.3 33-18.4 2.8-2 7.9-5.6 11.5-8 3.6-2.3 8.3-5.5 10.5-7 5.3-3.7 15.6-9 23-11.8 3.3-1.3 7.4-3 9-3.9 1.7-.9 3.8-1.6 4.8-1.6 1.1 0 3.3-.6 5-1.4 1.8-.8 6.1-2.4 9.7-3.6 3.6-1.2 7.3-2.6 8.3-3.1 2.3-1.3 17.7-6.9 19.7-7.3.8-.1 2.2-.5 3-.9 9.6-4.1 27.9-9.1 48.5-13 7.2-1.4 13.8-2.9 14.7-3.2 6-2.3 35.8-3.1 57.8-1.5zm493.6 17.9c-.3.4-2.7 1.6-5.3 2.6-2.6 1-7.5 3.3-10.9 5.2-3.4 1.8-6.9 3.3-7.9 3.3-.9 0-2.9.8-4.3 1.9-2.5 1.7-14.9 8.1-23.2 12-1.9.9-5.7 2.8-8.5 4.3-2.7 1.5-9.3 4.8-14.5 7.3-5.2 2.6-10.8 5.4-12.5 6.2-5.5 2.9-24.2 11.9-37.5 18.1-20.7 9.5-27.7 12.9-38.5 18.1-18 8.8-55.8 27.6-75.1 37.4-9.4 4.7-21.6 10.7-27 13.2-5.4 2.5-11 5.7-12.4 6.9-1.4 1.3-3.4 2.6-4.5 2.9-1.1.2-2.8.8-3.7 1.2-1.4.5-1.8.2-1.8-1.4 0-1.5 1.6-2.8 6.3-5 6.1-3 11.9-6 20.7-10.7 2.5-1.3 12.8-6.5 23-11.5s19.9-9.7 21.5-10.6c12.3-6.4 24.6-12.3 25.5-12.3.5 0 1-.5 1-1 0-.6.8-1 1.8-1 .9 0 5.9-2.5 10.9-5.5 5.1-3 9.7-5.5 10.2-5.5 1 0 23.7-11.5 25.6-13 .6-.4 4.2-2.4 8-4.5 3.9-2.1 8.1-4.4 9.5-5.1 1.4-.8 3.3-1.4 4.2-1.4.9 0 2-.5 2.4-1.1.7-1.2 26.2-13.6 44.4-21.6 6.9-3 15.2-6.7 18.5-8.3 9.5-4.6 32.5-14.1 37.9-15.7 2.7-.8 6-2.2 7.3-3 1.3-.8 2.3-1.3 2.3-1 0 .3 1.5 0 3.3-.8 3.9-1.7 4-1.7 3.3-.6zm-341.7 68.6c2.2 2.4 4.1 4.9 4.1 5.4 0 1-18.4 10.2-23.2 11.6-1.3.4-5.2 2.1-8.8 3.7-3.6 1.7-10.3 4.6-15 6.5-10.7 4.3-30.9 14.2-33.3 16.1-.9.9-2 1.2-2.4.9-.3-.4-2 .4-3.7 1.6-1.7 1.3-6.9 4.1-11.6 6.2-4.7 2.1-14.3 6.8-21.5 10.5-7.1 3.7-14.8 7.3-17 8-2.2.7-6.7 2.9-10 5.1-3.3 2.1-9.8 5.3-14.5 7.2-4.7 1.9-11.3 4.9-14.6 6.6-3.4 1.7-7 3.1-8 3.1-1.1 0-3.9 1.1-6.4 2.5-2.5 1.4-6.7 3.6-9.5 4.9-2.7 1.3-9.4 4.4-14.8 7-5.4 2.5-10.3 4.6-10.9 4.6-.5 0-2.2.7-3.6 1.5-1.5.8-7.4 3.5-13.2 6.1-5.8 2.5-16 7.3-22.8 10.5-6.7 3.3-15.5 7.1-19.5 8.5-3.9 1.5-7.9 3.2-8.7 3.9-1.9 1.5-52.2 26.5-53.4 26.5-1.2 0-34.6 16.8-36.4 18.3-1.7 1.3-10.9 5.3-18.6 7.9l-5.9 2.1-3.6-4.4c-1.9-2.4-5.7-6.6-8.4-9.3-2.6-2.7-4.6-5.3-4.4-5.9.2-.6 3.2-2.3 6.8-3.7 3.5-1.5 9-3.9 12.2-5.3 3.1-1.5 8.5-3.9 12-5.3 3.4-1.4 8.5-3.6 11.2-4.9 2.8-1.2 6.1-2.6 7.5-3 1.4-.4 5.2-2.2 8.5-4 3.3-1.9 11.4-5.7 18-8.5s14.9-6.5 18.5-8.2c3.6-1.7 9-3.8 12-4.8 6.5-2.2 26.8-10.5 36-14.8 3.6-1.6 9.7-4.2 13.5-5.7 3.9-1.5 9.5-4 12.5-5.5s6.6-3.1 8-3.5c1.4-.4 5.2-2 8.5-3.5 11.1-5.1 49.8-21.8 54-23.3 1.7-.6 7.7-3.3 13.5-6s14.1-6.2 18.5-7.9c4.4-1.6 9.4-3.7 11-4.7 1.7-.9 5.3-2.5 8-3.5 2.8-1 6.8-2.6 9-3.6s5.6-2.5 7.5-3.3c1.9-.8 6-2.6 9-4s8-3.3 11-4.3c3-.9 6.4-2.3 7.5-3 1.1-.7 4.9-2.4 8.5-3.9 3.6-1.5 10.8-4.7 16-7.2 5.2-2.5 13.6-6.3 18.5-8.5 14.3-6.4 31.8-14.7 34.5-16.3 1.4-.8 2.8-1.5 3.1-1.5.4 0 2.5 2 4.8 4.5zm8.6 16.8c-2.7 1.6-13.6 7.2-38.3 19.5-22.7 11.3-33.1 16.6-40.7 20.5-2.7 1.4-9 4.5-14 6.8-12.2 5.6-26.8 12.9-46 22.9-8.8 4.6-19.6 10.1-24 12.3-4.4 2.1-11.1 5.8-15 8.1-3.8 2.3-13.1 7.3-20.5 11-7.4 3.8-14.7 7.7-16.2 8.7-1.4 1.1-3 1.9-3.4 1.9-.4 0-1.5.6-2.3 1.4-.9.8-6.1 3.7-11.6 6.6-10.5 5.3-14.4 7.5-18.5 10.3-1.4.9-4.1 2.2-6 2.8-1.9.7-6.5 3.1-10.1 5.5-3.7 2.3-12 7-18.5 10.4-6.6 3.5-12.6 6.8-13.4 7.5-1.7 1.5-12.9 7.5-27.2 14.7-5.3 2.7-12.7 6.8-16.4 9.3-3.8 2.4-8.2 4.7-9.9 5.1-1.6.4-5.2 2.1-8 3.9-2.7 1.8-8.6 5.1-13 7.3s-9.3 4.7-11 5.6c-1.6.9-3.6 1.6-4.4 1.6-1.8 0-6.1-3.9-6.1-5.6 0-.7-1.7-2.6-3.7-4.2-2.6-2.1-3.5-3.4-2.8-4.1.6-.5 8.4-4.7 17.5-9.2 9.1-4.5 20.1-10.2 24.5-12.7 4.4-2.5 9.6-5 11.5-5.7 1.9-.6 8.7-3.7 15-7 13.7-7 44.8-22.2 58-28.4 5.2-2.4 15.9-7.5 23.7-11.3 7.9-3.7 14.7-6.8 15.2-6.8.8 0 4.3-1.5 17.5-7.5 1.7-.7 7.2-3.2 12.1-5.5 5-2.3 10.6-4.8 12.5-5.5 7.8-2.8 42-19.2 105.5-50.5 38.6-19 52.3-25.5 69.5-33.1 3-1.3 8-3.6 11-5.1 5.8-2.8 11.6-4 7.5-1.5zm10.4 9.4c.7 1.6 2.5 5 4.1 7.8 4.1 6.9 6.1 11.5 5.4 12.6-.3.5-.9.7-1.3.5-.4-.3-3.4.9-6.6 2.6-11 5.6-15 7.5-19 9.4-2.2 1-6.2 3.3-9 5.2-2.7 1.8-7.5 4.4-10.5 5.8-3 1.5-8.3 3.9-11.6 5.5-3.4 1.6-6.5 2.9-6.9 2.9-.4 0-2 1.1-3.7 2.5-1.6 1.4-3.6 2.5-4.5 2.5-.8 0-2.7.6-4.1 1.4-1.5.8-5.2 2.7-8.2 4.2-3 1.5-6.9 3.8-8.6 5.1-3.8 2.8-36.1 19.3-38 19.3-.7 0-2.5 1.1-4.1 2.4-1.5 1.3-5.5 3.7-8.8 5.3-8 3.9-37.9 20.2-43.2 23.6-2.3 1.5-9.4 5.1-15.7 8.1-6.3 3-13 6.5-14.8 7.9-1.8 1.3-7.8 4.5-13.3 7.2-20.7 9.8-27.1 12.9-31.5 15.2-2.5 1.3-7.9 3.9-12 5.9-4.1 1.9-8.4 4-9.5 4.6-11.8 6.7-20 11-30.5 15.8-6.9 3.2-17.9 8.5-24.4 11.9-6.6 3.3-12.3 6.1-12.8 6.1s-2.5 1.1-4.6 2.4c-2 1.3-5.2 2.7-6.9 3.1-1.8.4-3.5 1.1-3.9 1.6-.8 1.4-22.5 11.9-24.5 11.9-1 0-2.3-1.5-3.2-3.9-.9-2.1-2.7-5.5-4.1-7.5-3-4.4-2.5-6.3 1.9-7.5 1.8-.5 6.6-2.8 10.6-5.2 4.1-2.4 9.9-5.6 12.9-7.1 3-1.6 7.5-3.9 10-5.3 2.5-1.3 7.2-3.7 10.5-5.3 3.3-1.6 11-5.7 17-9.2 6.1-3.4 14.6-8.2 19-10.5 14.2-7.6 24.7-13.4 25.8-14.4.7-.5 3.7-2.2 6.7-3.8 17.5-9.3 25.5-13.8 25.8-14.5.2-.4.8-.8 1.4-.8.6 0 6.2-2.9 12.4-6.5s11.7-6.5 12.2-6.5 3.7-1.8 7.2-4.1 11.6-6.9 17.9-10.2c6.4-3.4 14.3-7.6 17.6-9.4 3.3-1.8 9.4-4.9 13.5-6.9s8.6-4.5 10-5.4c1.4-1 8.2-4.6 15-8 6.9-3.3 14.1-7 16-8 3.4-1.9 7.1-3.7 27.5-13.6 5.5-2.7 10.9-5.3 12-5.9 2.4-1.2 52.2-26.4 54.5-27.6.8-.4 7.1-3.5 14-7 6.9-3.4 13.4-6.8 14.5-7.5 2.7-1.9 3.1-1.8 4.4 1.3zm16 32.5c2.5 7.2.7 9.7-10.3 14.8-3.8 1.8-9.2 4.7-12 6.5-2.8 1.8-11.9 6.6-20.1 10.7-8.3 4.1-22 11-30.5 15.4s-21.8 10.8-29.5 14.3c-7.7 3.5-23.5 11-35.2 16.7-11.7 5.7-22.5 10.7-24 11-1.5.4-6.1 2.5-10.1 4.6-4 2.1-7.9 3.8-8.6 3.8-2 0-8.6 3.1-12.3 5.7-1.7 1.3-4.2 2.3-5.6 2.3-1.3 0-2.9.6-3.6 1.3-.6.7-5.2 3.3-10.3 5.7-5.1 2.3-15.1 7.1-22.3 10.5-7.1 3.5-15.7 7.5-19 9-3.3 1.5-10.1 4.7-15.1 7.1-5 2.4-9.4 4.4-9.8 4.4-.3 0-4 1.6-8.2 3.5-4.1 1.9-8.1 3.5-8.8 3.5-.7 0-4.4 2-8.2 4.5-3.7 2.5-9.3 5.5-12.4 6.6-3 1.1-7.1 2.9-9 3.9-5.3 2.7-23.1 11-23.7 11-.3 0-2.1 1.1-3.9 2.5-1.8 1.4-3.8 2.5-4.5 2.5-.7 0-7.1 2.9-14.3 6.4-14.4 7-18.9 8.5-18 6.2.3-.8 1.9-1.8 3.5-2.1 1.6-.4 7.7-3.3 13.6-6.5 6-3.2 13.3-6.8 16.3-8 3-1.2 6.2-2.6 7-3.1.8-.5 4.9-2.7 9-4.9s8.2-4.4 9-4.9c.8-.5 4.9-2.5 9-4.4 39.2-18.4 119.5-58.7 127.1-63.8 1.3-.8 4-2.2 5.9-2.9 1.9-.8 5.8-2.9 8.7-4.6 2.9-1.7 6.7-3.7 8.5-4.3 1.8-.7 4-1.7 4.8-2.2 10.5-6.7 25-14.9 26.1-14.9.7 0 2.6-1 4.3-2.3 1.7-1.2 6.3-3.8 10.1-5.7 3.9-1.9 7.7-3.9 8.5-4.6 1.7-1.3 17.1-9.5 36.5-19.3 7.2-3.7 15.1-7.9 17.8-9.5 2.6-1.5 4.7-2.5 4.7-2.1 0 .4.6.3 1.3-.3.6-.5 8.4-4.7 17.2-9.3 8.8-4.5 17.1-8.9 18.5-9.6 1.4-.7 3.2-1.3 4.1-1.3.8 0 1.9-.4 2.5-.9 1.9-2 11.9-6.8 13.1-6.4.6.3 1.6 1.8 2.2 3.5zm6.1 18.5c0 .5-.4 1.4-.8 2-1 1.7-15.4 9-19.2 9.8-1.6.4-4.5 1.7-6.5 3.1-2 1.3-5.5 3.4-7.7 4.5-2.3 1.2-6.8 3.9-10 6.1-3.3 2.3-9.2 5.5-13.1 7.2-4 1.8-9.7 4.6-12.7 6.4-9.8 5.5-20.2 11.2-31.5 16.8-6 3.1-14.1 7.4-18 9.6-3.8 2.2-10.3 5.8-14.3 7.9-4 2.2-11.3 6.5-16.3 9.5-4.9 3-11.9 6.9-15.5 8.5-3.6 1.6-8.4 4.3-10.6 5.9-2.3 1.7-4.8 3-5.7 3-.9 0-4.1 1.4-7.1 3.2-10.4 5.9-43.1 22.6-65 33.3-5.2 2.5-12 5.9-15 7.5-8 4.2-16.5 8-18 8-.6 0-3 1.4-5.1 3.1-2.2 1.7-6.7 4-10.1 5-3.4 1.1-7.8 3-9.7 4.2-4.4 2.7-11.3 5.9-21.1 9.8-10.2 4.1-10.7 4.3-17.5 8.2-3.3 1.8-7.8 4-10 4.9-2.2.9-10.6 4.8-18.7 8.7-8.1 3.9-15.2 7.1-15.7 7.1-1.3 0-2.1-2.7-2.1-7.5 0-4.9 1.7-7.2 5.8-8.1 1.5-.3 11.7-5 22.7-10.4 46.3-22.8 86-41.9 90.5-43.5 2.9-1 9.7-4.4 22.5-11.2 1.1-.5 3.6-1.7 5.5-2.6 1.9-.8 8.2-3.8 14-6.5 5.8-2.8 17.5-8.3 26-12.2 8.5-4 19.6-9.2 24.5-11.5 5-2.4 11.5-5.4 14.5-6.8 3-1.3 8.4-3.8 12-5.4 17.2-8 27-12.3 27.8-12.3.5 0 6.4-2.9 13.3-6.3 6.8-3.5 14.1-6.9 16.1-7.6 4.2-1.4 41.4-20.2 51.8-26.1 3.6-2 10.1-5.5 14.5-7.7s10-5.2 12.5-6.8c5-3.2 21.1-11.5 22.3-11.5.4 0 .7.3.7.7zm-611.3 87c4.8 1.2 10.3 6.7 10.3 10.3 0 1.8.7 3.3 1.8 3.9 2.3 1.2 9.3 1.1 11.2-.3 10.9-8 38.4-13.5 61.7-12.2 19.8 1.1 24.1 1.8 33.5 5.8 7.5 3.2 5.7 4.8-12 10.8-4.5 1.6-9.5 3.8-11.1 5-1.7 1.1-7.1 3.4-12.1 5-5 1.7-12.4 4.8-16.5 6.9-4.1 2.2-8.9 4.2-10.7 4.6-1.8.4-4.4 1.3-5.8 2.1-4.1 2.2-14 6.4-15 6.4-.6 0-1.8.5-2.8 1-4.2 2.5-32.8 13.5-51.2 19.7-5.8 2-11.5 4.2-12.7 5-1.2.8-5.5 2.4-9.5 3.5-8.6 2.3-11.4 3.1-18.8 5.3-11.1 3.4-13.5 3.1-11-1.3.5-.9 2.7-6.3 5-12 5.2-13.3 12.8-28.1 19.8-38.7 8.2-12.4 23.4-28.5 26.9-28.5 1-.1 3.4-.9 5.3-2 3.5-1.9 7.4-2 13.7-.3zm142.1 24.2c2.8 2.6 5.2 5.1 5.2 5.5 0 .4 2.1 2.7 4.6 5.1 5.6 5.1 5.4 6.4-1.3 10-2.6 1.4-9.3 5.3-14.8 8.5-5.5 3.3-12.5 7.3-15.5 9-3 1.7-7.7 4.3-10.5 5.9-2.7 1.7-7 4-9.5 5.2-2.5 1.2-7.3 4.1-10.7 6.5-3.5 2.4-7.2 4.4-8.2 4.4-1.1 0-6.7 2.5-12.4 5.5s-11 5.5-11.8 5.5c-.8.1-3.2.9-5.4 2s-4.6 1.9-5.3 2c-.8 0-2.6.6-4 1.4-1.5.7-4.3 2.1-6.2 2.9-1.9.9-4.6 2.3-6 3.1-1.4.8-7.4 3.4-13.5 5.7-9.6 3.6-20.5 8-27 11-4.3 1.9-47.8 18.7-51 19.6-1.1.4-2.9 1.2-4.1 2-2.5 1.6-11.5 4.4-12.4 3.8-.4-.2-.5-2.1-.4-4.2.1-2.1.5-8.8.8-14.8.4-6.1 1.1-14.9 1.7-19.6l1.1-8.6 8.7-2.3c4.7-1.3 10.1-2.5 11.9-2.8 1.8-.2 3.5-.8 3.8-1.3.3-.5 1.4-.9 2.5-.9s3.1-.7 4.4-1.6c1.4-.9 3.2-1.4 4-1 .8.3 1.5.1 1.5-.3 0-.5 2.6-1.7 5.8-2.7 3.1-1 7.7-2.8 10.2-4 2.5-1.3 5.7-2.5 7-2.7 1.4-.3 5-1.6 8-3 13.1-6.1 19.8-9.1 24-10.7 2.5-.9 7.7-3.1 11.5-5 9.9-4.7 14.2-6.6 20.5-9 8-3 21.9-9 26-11 1.9-1 5.1-2.3 7-2.8 5.9-1.7 14.3-5.1 15.4-6.2.5-.5 1.6-1 2.3-1 .6 0 4-1.3 7.5-2.9 7.8-3.5 12.9-5.5 19.3-7.5 2.8-.9 5.7-2.1 6.5-2.6 2.4-1.6 3.2-1.2 8.8 3.9zm25.2 27.5c0 .7 1.1 2.1 2.4 3 6 3.9 9.2 11.6 5 11.6-1.6 0-12.6 5.3-16.4 8-1.4.9-7 4.1-12.5 7-5.5 2.9-14.3 8-19.5 11.4-5.2 3.4-12 7.4-15 8.9-3 1.4-9.3 5.1-14 8.1-4.7 3.1-10.5 6.6-13 7.9-2.5 1.2-7.1 4.3-10.2 6.7-3.1 2.5-7.5 5.6-9.8 7-2.3 1.4-5.4 3.5-6.9 4.7-1.4 1.3-3.5 2.3-4.7 2.3-1.1 0-2.9 1-4 2.1-3.2 3.6-13.1 9.8-25.9 16.3-2.2 1.1-4.7 2.7-5.5 3.5-.8.8-3.5 2.3-6 3.4s-5.5 2.8-6.8 3.8c-2.2 1.7-6.3 3.8-14.7 7.4-3.6 1.6-7.3 3.4-22.5 11-14 6.9-26 12.5-28.3 13-1.5.4-3 1.1-3.3 1.6-.3.5-1.3.9-2.4.9-1.8 0-2.3-1.4-6.6-20.5-3.2-14.2-3.5-17.4-1.4-19.5 1.1-1.1 2.6-2 3.4-2 .7 0 3.1-.8 5.2-1.7 2.2-.9 4.3-1.6 4.7-1.5.5.2 2.3-.7 4.2-1.8 1.8-1.1 3.9-2 4.8-2 .8 0 1.7-.4 1.9-.8.2-.5 4.3-2.3 9.1-4 4.9-1.8 10.7-4 13-5 4-1.8 6.5-2.8 16.7-6.7 2.5-1 6.3-2.6 8.5-3.6s5.8-2.5 8-3.4c2.2-1 5.8-2.6 8.1-3.6 2.2-1 4.8-1.9 5.6-1.9.9 0 7.8-2.9 15.3-6.5 7.6-3.6 14.7-6.7 15.9-6.9 4.5-.8 47.8-22.1 53.3-26.2 1.7-1.3 3.8-2.4 4.7-2.4.8 0 2.7-1.1 4.3-2.4 1.5-1.3 3.9-2.7 5.3-3.1 1.4-.4 8.4-4.2 15.5-8.5 7.2-4.2 14-8 15.2-8.4 1.3-.4 2.9-1.3 3.5-1.9 2.4-2.3 11.3-6.7 13.6-6.7 1.2 0 2.2.6 2.2 1.4zm22.2 29.5c5.5 9.1 5.7 8.7-7.7 14.6-4.4 1.9-8.7 4-9.5 4.5-.8.6-5.8 3.1-11 5.6-22.1 10.6-40.6 19.8-42 20.9-.8.6-4.4 2.4-8 4-3.6 1.5-9.9 4.7-14.1 7.1-4.2 2.4-9 4.7-10.7 5-1.7.4-3.7 1.3-4.3 2-.6.8-1.7 1.4-2.5 1.4-.7 0-3.2 1.3-5.6 2.8-2.4 1.6-7.2 4.2-10.8 5.8-3.6 1.6-13.1 6.1-21.2 10.1-8 4-14.8 7.3-15.1 7.3-.3 0-4 1.6-8.1 3.6-10.4 4.8-11.8 3.8-2-1.6 4.3-2.4 9.9-5.4 12.4-6.8 2.5-1.4 5-2.9 5.6-3.3.6-.5 3.7-2.3 7-4 3.2-1.7 6.8-3.9 7.9-4.8 1.1-1 7.2-5.1 13.5-9.2 11.1-7.3 17.9-11.7 22.5-14.9 1.2-.8 3.5-2.4 5.1-3.4 1.6-1 5.2-3.4 8-5.2 2.8-1.9 5.4-3.4 5.9-3.4s1.7-.7 2.7-1.7c1.8-1.6 2.9-2.3 8.9-5.7 1.9-1 4.7-2.9 6.2-4.2 1.6-1.3 3.3-2.4 3.8-2.4 1.3 0 11.2-6.1 12.9-8 .8-.9 3.1-2.3 5-3 1.9-.8 8-3.8 13.5-6.9 21.6-11.9 24.1-13.1 25.9-12.8 1.1.1 3.5 2.8 5.8 6.6zM538.5 1875c-.3.5-.8 11-1.1 23.2-.3 12.3-.7 22.8-.9 23.4-.1.6-2.5 1.8-5.2 2.8-2.6 1-5.7 2.1-6.8 2.5-12.3 4.9-15.9 6.1-16.6 5.4-.4-.4-.9-11.8-1.1-25.3-.3-23.8-.2-24.5 1.7-24.8 1.1-.2 2.9-.7 4-1.3 1.1-.5 7.2-2.9 13.5-5.3 9.1-3.4 11.7-4 12.3-2.9.4.7.5 1.8.2 2.3zm269.1.5c-2.6 1.9-4.2 1.9-2.6 0 .7-.8 2-1.5 2.9-1.5 1.3.1 1.3.3-.3 1.5zm25.6 5c.5 1.6.6 3.9.3 5-.5 2.3-16.2 12-21.6 13.5-1.9.5-5.5 2.3-8 3.9-2.6 1.6-5.7 3.2-7 3.6-4.6 1.4-16.5 7.3-17.7 8.7-.6.8-3.1 2.3-5.4 3.4-2.4 1-4.5 2.1-4.8 2.4-.3.3-3.2 2-6.5 3.7-8.6 4.5-14 7.5-22 12.1-3.8 2.2-12.4 6.8-19 10.1s-15.6 8.3-20 11.1c-4.4 2.8-13.4 7.7-20 11s-15.2 7.8-19.2 9.9c-4 2.2-9 4.5-11.1 5-2.2.6-5.1 2.2-6.6 3.6s-3.9 2.8-5.4 3.1c-1.5.4-4.8 1.7-7.4 3-2.6 1.3-5.4 2.4-6.1 2.4-.8 0-4.9 1.8-9.2 4-4.3 2.2-8.1 4-8.6 4-.4 0-3.7 1.4-7.3 3.1-5.3 2.5-6.8 2.9-8.5 1.9-1.2-.6-2.1-1.5-2.1-2 0-.6-2-3-4.5-5.5-2.4-2.5-4.2-5.1-3.9-5.9.5-1.4 5.2-3.6 11.9-5.7 2.2-.7 6.4-2.5 9.4-4 3-1.6 7.8-3.6 10.5-4.5 4.6-1.5 9.8-3.7 22.1-9.4 2.2-1.1 4.7-2.1 5.5-2.4.8-.3 2.2-1 3-1.5.8-.5 4.2-2 7.5-3.4 13.9-5.8 17.3-7.3 22.5-10.3 3-1.7 7.1-3.7 9-4.5 1.9-.8 6.4-2.9 10-4.8 25.1-13 55.3-28.1 56.2-28.1.6 0 3.4-1.5 6.2-3.3 2.8-1.8 6.2-3.8 7.6-4.4 1.4-.6 12.7-6.1 25.1-12.2 12.4-6.1 22.9-11.1 23.4-11.1.4 0 3.3-1.5 6.4-3.3 6.5-3.8 11-5.6 13-5.4.8.1 1.8 1.5 2.3 3.2zm-44.2 3.9c0 .3-.4.8-1 1.1-.5.3-1 .1-1-.4 0-.6.5-1.1 1-1.1.6 0 1 .2 1 .4zm-4.5 2.5c-.6.5-2.1 1.2-3.5 1.5l-2.5.7 2.5-1.5c2.8-1.7 5-2.1 3.5-.7zm51.5 26.6c-1.4 14.8-2.6 20.3-9.5 44.5-4 13.9-12.7 31-22.4 44-7.8 10.4-20.3 23.3-26.4 27.2-2.9 1.8-5.4 3.5-5.7 3.8-1.1 1.2-8.7 5.8-12 7.2-7.3 3.2-9.2 3.8-17.2 5.7-12.8 3.1-20.7 4.1-27.8 3.6-3.6-.3-8.9-.6-11.7-.7-2.9-.1-5.3-.5-5.3-.8 0-.4-3.5-1-7.7-1.3-4.8-.4-12-1.9-18.7-4.1-6-2-11.2-3.4-11.6-3.1-.4.2-1.6-.2-2.6-1s-3.1-1.5-4.7-1.5c-1.5 0-3.5-.4-4.5-.9-2.7-1.5-13.5-5.8-16.2-6.6-1.4-.4-5.3-2.1-8.8-3.7-3.4-1.6-7.5-3.1-9-3.4-2.3-.5-6.2-4.2-5-4.7 6.6-3.2 13-6.2 19.8-9.2 12.7-5.7 57.8-28.4 60.5-30.5.6-.4 2.1-1.1 3.5-1.5 1.4-.4 2.7-1.1 3-1.6.6-.9 14.7-8.6 28.5-15.5 5-2.5 11.9-6.3 15.5-8.5 3.6-2.2 9.4-5.3 13-7 3.6-1.8 7.3-3.8 8.2-4.6.9-.8 4.5-2.8 8-4.5 3.5-1.6 7-3.5 7.8-4.3.8-.7 5.1-3.2 9.5-5.5s8.5-4.5 9-5c.6-.4 6.6-3.6 13.5-6.9 6.9-3.4 13.6-6.9 15-7.7 1.4-.8 3.9-2.2 5.7-2.9 1.7-.8 3.5-2 3.9-2.7.5-.8 1.2-.2 2 1.8.9 2.1 1 5.5.4 11.9zm-296.3 24.7c.5 7.6 6.9 32.7 8.7 33.9 1.4 1.1-.2 2.7-5.2 5.3-2.6 1.3-7.2 3.8-10.2 5.5-6.9 3.8-12.9 6.7-15.6 7.5-2.7.8-3.4-.7-4.5-10.4-.4-4.1-1.3-12.2-2-18-.6-5.8-1.1-11.3-1.1-12.3.1-2.1 2.8-5 4.1-4.3.7.5 15.6-5.7 20.1-8.4 2.9-1.7 5.5-1.1 5.7 1.2zm38.3 77c0 1.2-5.7 4-11.5 5.4-1.1.3-2.9.9-4 1.4-6.5 2.8-9.5 3.9-13.5 5-2.5.7-7.4 2.3-11 3.5-10.2 3.6-14.1 4.7-14.6 4.2-.8-.8-2.4-13-1.8-13.9 1.2-1.9 22.2-11.3 35.9-16 3.3-1.1 6.4-2.4 6.8-2.8.8-.7 13.7 11.7 13.7 13.2z"/><path d="M952.4 626c-6.9 2.2-12.2 11.2-14.3 24.4-3.2 19.5 0 31.6 8.2 31.6 5.9-.1 6.7-1.6 6.7-12.5 0-10.5 2.6-22 5.7-25 1.8-1.8 7-1.4 12.9 1.1 3.3 1.4 9.4 7.9 9.4 10 0 2.2 3.7 9.9 5.9 12.1 2.6 2.7 6.3 3 8.6.6 2.5-2.5 1.5-10.5-2.2-18.4-4.2-8.5-13.5-18.2-20.8-21.5-6.2-2.8-15.2-3.9-20.1-2.4zM819.8 628.8c-4.6 1.6-18.8 13.2-18.8 15.3 0 .5-.9 2.2-2 3.8-2.2 2.8-5 14.2-5 19.8 0 6.5 4.2 12.6 9.7 13.9 3.9 1 5-1 5.7-10.3.8-10.4 3.2-15.4 11-22.5 8.2-7.5 15-7.4 26.3.4 6.8 4.6 9.6 7.6 12.8 13.6 3.4 6.5 7.3 9 11.4 7.6 3.9-1.4 4.8-5.3 2.4-10.9-4.1-9.4-21-25.7-31.7-30.6-5.2-2.4-15.5-2.4-21.8-.1zM933.5 734.2c-.9 1.3-3.3 5.1-5.3 8.4-8.5 14.2-16.8 19.5-27.9 17.8-5.5-.8-9.9-5-14-13.2-5.8-11.7-18.3-13.9-18.3-3.1 0 6.3 10.7 22 18.7 27.3 7.1 4.8 10.5 5.6 21.2 5 11.3-.6 14.2-1.9 23.1-10.6 11.5-11.2 16-18.2 16-25 0-3.4-.4-4.8-1.3-4.8-.8 0-2.2-.9-3.2-2-2.5-2.7-7-2.6-9 .2zM1843.5 1360.6c-1.3 1.4-2.7 3.5-3 4.5-.4 1.3-1.6 1.9-3.5 1.9-4.5 0-7 2.8-7.7 8.7-.4 3.8-.1 6.6 1.2 9.9l1.7 4.6 5.4-.5c6.5-.5 9.9-3.2 16.7-12.9 5.4-7.7 5.5-10.8.5-15.9-3.8-3.8-8-3.9-11.3-.3zM1813 1381.8c-3.6 2.8-5.3 9.6-4.5 17.6.9 8.3 2.2 10.1 7.3 10.1 3.5 0 4.6-.7 8.2-4.5 5.8-6.4 7.3-10.1 6-15-2-7.4-12-12.2-17-8.2zM1980.3 682.2c-4.9 5.5-7.1 27.4-3.8 36.9 2.8 7.8 2.3 39.8-1 65.4-3.3 25.5-6.7 49.5-8 56-.7 3.8-1.6 8.7-2 10.7-.6 3.7-.7 3.8-4.8 3.9-6.9.1-8 .6-12.3 5.2-7.2 7.5-10 23.2-5.6 31.4 3.9 7.3 6.1 11.8 7.8 16 1.3 3.4 2.7 4.7 6.2 6.5l4.5 2.1 6.4-3.2c6.3-3.3 12.4-9.4 15.7-15.8 3.2-6.2 1.6-19.2-3.1-24.7-1.7-2-2.2-3.6-1.9-5.5.5-2.3 2.6-22.6 3.1-29.1.2-2.9 1.6-17.3 2-21 .1-1.4 1-7.7 1.9-14 .8-6.3 2.2-22.2 3.1-35.4.8-13.1 1.7-24.1 1.9-24.3.3-.3 2.8.8 5.7 2.4 6.4 3.4 17.1 13.3 24.8 22.9 6.4 7.9 7.5 11.3 8.6 27.5.6 8.1.4 8.8-1.7 11.3-1.3 1.5-3.9 3.4-5.8 4.4-4.5 2.2-6.2 7.2-3.5 10.2 4 4.4 17.2 1.2 21.9-5.3 1.9-2.6 2.1-4.2 1.9-15.5-.2-24.7-4.4-34.9-21.2-52-5.8-6-12.9-12.6-15.8-14.6-2.8-2-7.1-6-9.5-8.8l-4.3-5.2.2-11.6c0-6.4.6-13.4 1.2-15.7 1.4-5.3.2-8.7-4.1-11.3-4.2-2.6-6-2.5-8.5.2zM1845.5 793c-1.6.4-7.5 1.7-13 2.9-23 5.2-27.2 6.4-54 16.6-7.7 2.9-16.5 6.2-19.5 7.3-5.1 1.8-5.7 2.3-8.3 7.7l-2.8 5.8 1.5 9.6c1.6 10.3 2.9 27.5 3.2 43.6.1 5.5.5 25.4.9 44.2.8 32.3.7 34.3-.9 34.3-1 0-3-.9-4.4-2.1-3.6-2.8-9.4-1.8-13.8 2.5-1.7 1.7-4.6 4.2-6.3 5.5-5.5 4-8.4 12-9.7 26.2-1.3 14.6 5.1 24.9 15.5 24.9 1.9 0 4.6-1.6 8.8-5.5 3.4-3 6.5-5.5 7.1-5.5.5 0 2-1.6 3.3-3.5 1.3-1.9 2.7-3.5 3.1-3.5 1 0 4.8-7 4.8-9 0-1 .5-2.2 1.1-2.6.6-.3.9-2.2.6-4.3-.3-2.5.2-4.4 1.5-6.3 1.9-2.7 1.9-3.8.8-28-.6-13.9-1.2-45.1-1.3-69.3-.2-37.5 0-44.4 1.3-47 1.1-2.2 4-4.2 11.7-8.1 14.4-7.2 37-16 43.8-17.1 1.7-.2 3.9-.8 5-1.3 3.4-1.5 9.9-3 13.2-3 2.3 0 3.7.7 5.1 2.7 4.5 6.5 5 8.7 6.1 26.3.6 9.6 1.4 20.8 1.8 24.7l.6 7.3h-2.7c-9.5 0-23.6 18.3-23.6 30.6 0 9.7 7.9 23.7 17.2 30.4 5.4 3.9 8.1 4.6 12.9 3 6.1-2 7.9-4.8 9.6-14.2 1.6-9 1.2-41.8-.7-55.3-.5-3.9-1-14.7-1-24-.1-20.6-2.7-42.4-5.5-45.5-1.9-2.1-7.2-2.6-13-1zM1800.4 1192.4c-1.6 1.2-1.9 2.6-1.8 8.3.2 7.5 2.9 21.2 5.1 25.5 1.6 3.3 3.3 3.5 5.7.9 3.2-3.5 4.2-26.1 1.4-31.8-.6-1.2-2.4-2.7-4.1-3.3-3.8-1.3-3.9-1.3-6.3.4zM1767.8 1208.7c-1.4.2-3.1 1-3.7 1.6-1.2 1.6-1.6 7.8-.7 13.2.3 2.2 1.2 8.2 2 13.3.8 5.1 2 9.9 2.6 10.7 1.5 1.8 5.6 2 6.7.2.4-.6 1-6.4 1.3-12.7.5-8.6 1-12.2 2.4-14.2 2.6-4 1.8-8.7-1.9-10.9-3.1-1.8-4-1.9-8.7-1.2zM636.3 2249c-1.8.7-2.2 2-2.8 8.6-1 10.7 0 31.9 1.9 37.9.8 2.7 1.7 6.6 2 8.5.3 3.1 1.2 6.3 4.8 18 .5 1.9 3.1 7.8 5.6 13 2.6 5.2 4.6 10 4.7 10.5 0 .6.9 2.4 2 4 1.1 1.7 2.6 3.9 3.3 5 5.2 8.2 7.5 11.6 8.6 12.2.6.5 3 3 5.1 5.6 2.2 2.7 5.9 6 8.3 7.4 2.3 1.4 4.2 2.8 4.2 3.2 0 .8 8.4 5.1 16 8.1 3 1.2 6.3 2.6 7.2 3.1 1 .5 2.7.9 3.8.9 1.1 0 2 .4 2 1 0 .5 1.5 1 3.4 1 2.1 0 3.6.6 4 1.5.3.8 1.1 1.5 1.8 1.5.9 0 .8-.3-.2-1-3.1-2 3.4-1 6.8 1 3.5 2.2 5.7 2.6 4.7 1-.9-1.4 1.1-1.2 2.7.3.7.7 3.8 1.4 6.8 1.5 15.6.7 51.8.6 60.9-.1 6.8-.6 10.7-.5 11.4.2.7.7 1.6.7 3-.1 1.4-.7 3.1-.7 6 .2 2.2.6 8.7 1.1 14.6 1.1 11 0 21.9.3 40.3 1.2 6.1.3 10.8.1 11-.4.2-.5 1.6-.6 3.3-.1 3 .8 14.1.8 67-.3 15.4-.3 30.5-.6 33.5-.6s8-.5 11-1c5-.9 28.1-2.9 33.9-2.9 1.3 0 2.9-.4 3.5-.9.6-.5 7.4-1.6 15.1-2.6 7.7-1 15-2.1 16.2-2.6 1.2-.4 4.6-.5 7.4-.2 3.2.4 5 .3 4.6-.3-.3-.6 3.8-1.5 10.1-2.3 16.2-1.9 16.3-2 22.2-3 3-.5 8.1-1 11.3-1 3.6-.1 5.6-.5 5.2-1.1-.8-1.2.1-1.3 4.3-.1 1.7.5 3.2.6 3.2.1 0-1 5.2-2 16-3.1 4.7-.4 11.9-1.3 16-1.8 4.1-.6 10.1-1.3 13.3-1.6 3.2-.2 6.4-.8 7-1.2.7-.4 3.2-1 5.7-1.4 2.5-.4 7.9-1.3 12-1.9 4.1-.6 8.4-1.5 9.5-2 1.1-.4 4.9-1.3 8.5-2 3.6-.6 7.6-1.6 9-2.2 1.4-.5 3.9-1.2 5.5-1.4 1.7-.2 4.4-.7 6-1 1.7-.4 4.1-.8 5.5-1 1.4-.1 5.4-1 9-1.9 3.6-.9 9.4-2.1 13-2.7 3.6-.7 6.7-1.5 7-1.8.3-.4 6.6-2 14-3.5 13.1-2.6 15.9-3.2 28.4-5.5 3.3-.6 6.4-1.4 7-1.7.6-.4 3.1-.8 5.5-.9 2.5 0 4.7-.6 4.9-1.3.2-.6 2.7-1.1 6.1-1.1 3.1 0 9.9-.9 15.1-2.1 5.3-1.1 11.1-1.8 13-1.5 2.3.4 2.8.3 1.5-.3-1.5-.6-.7-1 3.5-1.6 3-.5 5.7-.9 6-1 .3-.1 2.3-.5 4.5-.9s4.9-1.1 6-1.6c1.1-.5 3.8-1.2 6-1.5 2.2-.4 4.5-1.1 5-1.5.6-.5 2.2-1.1 3.7-1.4 2.1-.3 12-4.6 17.7-7.5.8-.4 2.4-1.9 3.4-3.3 1.7-2.3 1.8-2.9.6-5.7-.8-1.7-2-3.3-2.7-3.6-.8-.3-4.8 1.1-9 3.1-6.7 3.2-15.8 6.2-24.7 8.1-1.6.3-3.2.9-3.5 1.3-.6.7-35.7 7.1-41.5 7.6-2.9.2-13.9 2.3-21.3 4-3.5.8-6.7 1.2-7.3.8-.5-.3-1.5-.1-2.2.4-.7.5-3.2 1.2-5.7 1.5-2.5.3-7.2 1.2-10.5 2s-8.7 2-12 2.7c-3.3.6-8.9 1.8-12.5 2.6-3.6.8-8.4 1.8-10.8 2.1-2.3.3-4.5 1-4.8 1.4-.3.5-2.7.9-5.5.9-2.7 0-4.9.4-4.9.8s-3.4 1.4-7.5 2.1c-4.2.8-7.8 1.8-8.1 2.2-.9 1.4-3.6 1.1-2.8-.4.4-.6-.1-.4-1.2.5-1.1 1-3.3 1.7-5 1.7-3.1-.1-15.7 3.2-16.2 4.2-.1.3-1.4.4-2.8.1-1.4-.2-5.3.3-8.7 1.1-8.3 2.2-27.7 5.2-37.4 5.9-.7.1-1.3.5-1.3 1s-1.7.8-3.7.8c-2.1-.1-11 1-19.8 2.3-8.8 1.4-19.1 2.8-23 3.2-3.8.4-8.3.9-10 1.1-1.6.2-6.1.6-10 .9-3.8.3-8.1.9-9.5 1.4-3.7 1.4-18 3.2-19.2 2.5-.7-.4-.8-.2-.4.4.5.9-.6 1-3.8.6-2.8-.4-5.1-.2-5.9.4-1.7 1.4-14.4 3.4-16.7 2.7-1-.3-2.1-.2-2.4.3-.3.5-5 1.3-10.3 1.6-5.4.4-12.3 1.1-15.3 1.6s-10.4 1.2-16.4 1.5c-6 .3-11.3.8-11.7 1.1-.4.2-.9 0-1.1-.5-.2-.6-3.3-.6-8.3 0-4.4.6-10.1.8-12.6.5-2.5-.4-4.9-.3-5.3.1-.8.9-7 1.1-41.3 1.6-16.9.2-24.3 0-24.3-.7 0-.6-.4-.5-.9.3-.7 1.1-2.3 1.2-7.3.7-3.4-.4-15.7-.9-27.3-1.2-11.5-.2-24.4-.7-28.5-1.1-4.1-.3-13-.6-19.7-.7-7.1 0-11.7-.4-11-.9.7-.5-1.2-.6-4.4-.2-9.3 1-50.1.6-54.4-.6-2.2-.6-6.2-1.5-9-1.9-2.7-.5-6.1-1.4-7.5-1.9-1.4-.5-5.9-1.8-10-2.7-4.1-1-9.1-2.7-11-3.9-1.9-1.2-5.1-2.8-7-3.5-4.8-1.9-11.6-7.4-17-13.7-2.5-2.9-5.2-6.1-6.1-7-.9-1-3.6-5.4-5.9-9.8-2.3-4.4-4.6-8.5-5-9-.4-.6-1.5-3.3-2.3-6-.8-2.8-2.7-7.6-4.1-10.8-1.4-3.2-2.6-7.3-2.6-9.2 0-1.8-.4-3.6-.9-3.9-1.8-1.2-3.4-17-3.5-34.8-.1-16.8-.3-18.8-2-20.7-2-2.2-8.1-2.8-12.3-1.1z"/></svg>
